<?xml version="1.0" encoding="UTF-8"?>
<svg id="female" xmlns="http://www.w3.org/2000/svg" version="1.1" viewBox="0 0 16 16">
  <!-- Created by Zoltan Dul in 2026 - free to use with MIT license. SVG Version: 2.1.1 -->
  <path d="M8,15v-5.3M5.3,12.4h5.3M12,5.7c0,2.2-1.8,4-4,4s-4-1.8-4-4S5.8,1.7,8,1.7s4,1.8,4,4ZM8,15v-5.3M5.3,12.4h5.3M12,5.7c0,2.2-1.8,4-4,4s-4-1.8-4-4S5.8,1.7,8,1.7s4,1.8,4,4Z" style="fill: none; opacity: .3; stroke: #ffa46a; stroke-miterlimit: 5.3; stroke-width: 2px;"/>
  <path d="M8,15v-5.3M5.3,12.4h5.3M12,5.7c0,2.2-1.8,4-4,4s-4-1.8-4-4S5.8,1.7,8,1.7s4,1.8,4,4ZM8,15v-5.3M5.3,12.4h5.3M12,5.7c0,2.2-1.8,4-4,4s-4-1.8-4-4S5.8,1.7,8,1.7s4,1.8,4,4Z" style="fill: none; stroke: #ff3851; stroke-miterlimit: 5.3;"/>
</svg>