<?xml version="1.0" encoding="UTF-8"?>
<svg id="Layer_1" xmlns="http://www.w3.org/2000/svg" version="1.1" viewBox="0 0 32.3 64">
  <!-- Generator: Adobe Illustrator 30.1.0, SVG Export Plug-In . SVG Version: 2.1.1 Build 136)  -->
  <defs>
    <style>
      .st0 {
        fill: #f79f9a;
      }

      .st1 {
        fill: #fcc5bc;
      }

      .st2 {
        fill: #fff;
        stroke-width: .2px;
      }

      .st2, .st3, .st4 {
        stroke-miterlimit: 10;
      }

      .st2, .st4 {
        stroke: #000;
      }

      .st5 {
        fill: #fefefe;
      }

      .st6 {
        fill: #fdecc5;
      }

      .st3 {
        fill: #f0f0f0;
        stroke: #c8c9c9;
      }

      .st4 {
        fill: #0a1018;
      }
    </style>
  </defs>
  <path class="st5" d="M9.7,56.2c1.8-1,3.1-1.6,4.6-1.3,2.3,0,3.9,1.3,5.3,3-1.4-.4-2.9-.4-4.5,0-1.9.6-3.3,1.1-4.8.5-.6-.3-.9-1.3-.6-2.2Z"/>
  <path class="st6" d="M32.2,16.2l-2.3,1.2c-2.1,1.4,0,8.6-1.6,10.8,0,4.4-3.7,3.5-4.8,3.4-3.2-.2-10.7,0-14.4,0s-4.1-2.9-4.2-2.8c-1.7,0-1.8-11.4-1.8-11.4l-1.2-2C1.7,15,0,14.5,0,14V0h32.3v16.2h0Z"/>
  <path class="st0" d="M32.6,17.2c-.9,1-2.3,1.7-2.7,3-.9,3.5-.2,7.6-1.4,11-1.7,5.1-5.1.4-8.4.5-3.3,0-6.9-.2-10,.5-1.9.6-3.9,2.6-5.9,1.2C-.6,29.7,2.8,20.8.9,15.8c-.2-.9-1.7-2.3-.9-2.8.9-.5,3.5,1,3.8,2.2,1.7,3.7-1.6,13.9,2.9,15.2,2.2.3,7-.6,11.1-.9,3.1-.6,7.9.9,9.6-2.3,1.7-3.2-.1-8.1,2.1-11.1s4.6-1.2,3.2.9h0v.2Z"/>
  <path class="st3" d="M13.2,1.5c-2.4,4.5-2.5,9.8-2.8,14.8-.3,4.6-.9,9-1.3,13.6-.3,3.2-1.3,6.2-2.8,9-1.6,3.5-2.8,8.4-3,12.5-.3,6,1.7,10.9,7.8,10.9s16.5,1.1,16.5-4.3-.3-11.8-2.3-17-.3-.8-.5-1.2c-1.1-2.4-2.1-5.9-1.9-8.3.5-6.5-1.8-13.8-3-20.3-.4-3.6-1.6-7-4.6-9.3"/>
  <path class="st1" d="M15.3.4c.5,0,.7,3,.3,5-.3,2.3-.1,8.6.1,11.1.4,5.8.1,5.2.3,11.3s1.7,8.7,1.2,10.6c-.6,2.9-4.9,3.3-5.1.4s1.1-7.8,1.5-12.5-.2-9.7,0-10.9c.4-3.3.1-7.5-.1-10.4s-.9-3.5,0-4.3c0,0-.6-1,1.9-.4h0Z"/>
  <path class="st4" d="M7.1,57.8c0,4.6,5.7,4.6,9.1,4.5,3.3-.2,8.5.3,9.3-3.8.3-5.7-6.9-7.8-11.6-7.5-3.6,0-6.7,3.1-6.9,6.6v.2Z"/>
  <path class="st2" d="M11.4,55.2c-4.6,7.3,6,4.5,0,.8"/>
  <path class="st2" d="M17.8,58.1c-.1.1-.3.3-.4.4-.1.3-.1.6,0,.9s.4.5.7.6c.6.2,1.2,0,1.8-.1.9-.2,1.8-.2,2.6-.6.3-.2.6-.5.9-.8.3-.3.5-.6.6-1,0-.2.1-.4,0-.6,0-.4-.5-.7-.8-.8-.4-.2-.8-.3-1.3-.3-.4,0-.8.2-1.2.4-1.1.5-2.1,1.2-3,2Z"/>
</svg>