<?xml version="1.0" encoding="UTF-8"?>
<svg id="Layer_1" xmlns="http://www.w3.org/2000/svg" version="1.1" viewBox="0 0 32.3 64">
  <!-- Generator: Adobe Illustrator 30.1.0, SVG Export Plug-In . SVG Version: 2.1.1 Build 136)  -->
  <defs>
    <style>
      .st0 {
        fill: #f79f9a;
      }

      .st1 {
        display: none;
        fill: #d3bf2a;
      }

      .st2 {
        fill: #0a1018;
      }

      .st3 {
        fill: #388aca;
      }

      .st4 {
        fill: #fcc5bc;
      }

      .st5 {
        fill: #fff;
      }

      .st6 {
        fill: #fefefe;
      }

      .st7 {
        fill: #fdecc5;
      }

      .st8 {
        fill: #c8c9c9;
      }

      .st9 {
        fill: #f0f0f0;
        stroke: #c8c9c9;
        stroke-miterlimit: 10;
      }
    </style>
  </defs>
  <path class="st6" d="M9.7,56.2c1.8-1,3.1-1.6,4.6-1.3,2.3,0,3.9,1.3,5.3,3-1.4-.4-2.9-.4-4.5,0-1.9.6-3.3,1.1-4.8.5-.6-.3-.9-1.3-.6-2.2Z"/>
  <path class="st7" d="M32.2,16.2l-2.3,1.2c-2.1,1.4,0,8.6-1.6,10.8,0,4.4-3.7,3.5-4.8,3.4-3.2-.2-10.7,0-14.4,0s-4.1-2.9-4.2-2.8c-1.7,0-1.8-11.4-1.8-11.4l-1.2-2C1.7,15,0,14.5,0,14V0h32.3v16.2h0Z"/>
  <path class="st0" d="M32.6,17.2c-.9,1-2.3,1.7-2.7,3-.9,3.5-.2,7.6-1.4,11-1.7,5.1-5.1.4-8.4.5-3.3,0-6.9-.2-10,.5-1.9.6-3.9,2.6-5.9,1.2C-.6,29.7,2.8,20.8.9,15.8c-.2-.9-1.7-2.3-.9-2.8.9-.5,3.5,1,3.8,2.2,1.7,3.7-1.6,13.9,2.9,15.2,2.2.3,7-.6,11.1-.9,3.1-.6,7.9.9,9.6-2.3,1.7-3.2-.1-8.1,2.1-11.1s4.6-1.2,3.2.9h0v.2Z"/>
  <path class="st9" d="M13.2,1.5c-2.4,4.5-2.5,9.8-2.8,14.8-.3,4.6-.9,9-1.3,13.6-.3,3.2-1.3,6.2-2.8,9-1.6,3.5-2.8,8.4-3,12.5-.3,6,1.9-.8,8-.8s16.3,6.7,16.3,1.3-.3-5.7-2.3-10.9-.3-.8-.5-1.2c-1.1-2.4-2.1-5.9-1.9-8.3.5-6.5-1.8-13.8-3-20.3-.4-3.6-1.6-7-4.6-9.3"/>
  <path class="st4" d="M15.3.4c.5,0,.7,3,.3,5-.3,2.3-.1,8.6.1,11.1.4,5.8.1,5.2.3,11.3s1.7,8.7,1.2,10.6c-.6,2.9-4.9,3.3-5.1.4s1.1-7.8,1.5-12.5-.2-9.7,0-10.9c.4-3.3.1-7.5-.1-10.4s-.9-3.5,0-4.3c0,0-.6-1,1.9-.4h0Z"/>
  <path class="st3" d="M15.4,3.4c.9,2.6,1.2,8.2,1.6,11.6.5,4.6,2,17.2,2.5,21.9.3,5.2,5.9,7.1,1.9,12.1-3.7,4.7-12.1,3.7-11.4-5.7.7-7.3,2.8-4.5,3-12.2.4-6.8.9-14.5,1-20.9,0-1.1.3-10.1,1.4-7h0Z"/>
  <path class="st8" d="M15.6,17.8c2.4,2.4,3,12.1,4.2,16.3,1.2,5.5,3.6,10.2,2.1,14.2-1.8,4.3-8.6,4.1-11.1.7-3.1-5,.9-11.3,1.5-16.8.9-3.2.8-14.2,3.2-14.4h0Z"/>
  <path class="st1" d="M7.5,55.4c1.5-2.7,4.9-2.8,7.6-2.8,2.9,0,6-.2,7.8,1.2,2.1,1.7,5.6,6.9,1.4,8.2-3.5,1.2-7.7,1-11.4.9-5.6,0-8.1-2.4-5.5-7.4v-.2Z"/>
  <path class="st2" d="M2.9,54.2c2,1.3,6-2.8,8.3-2.7,5.5-.8,14.1,6.9,17.3-.7,1-2.8-1-5.5-2.7-7.6-2.5-3.1-6.4-4-10.3-3.8-3.5.2-8,.3-10.7,2.7-.9,1-1.4,2.8-1.6,4.3,0,0-1.5,6.7-.4,7.8Z"/>
  <path class="st5" d="M5.7,45.4c-.6,1.1-.6,2.4-.6,3.6,0,.3,0,.5.2.7.2.2.5.2.7.2.7,0,1.5-.3,1.9-.9.2-.3.4-.7.5-1.1.3-1.2.5-2.4.6-3.6s0-1-.3-1.4-.9-.4-1.2-.1-.5.7-.7,1.1c-.3.5-.8,1-1.1,1.5Z"/>
  <path class="st5" d="M17.7,48.4c.2-.2.4-.3.5-.6.3-.5.3-1.2.3-1.9,0-.3-.1-.8-.4-.8-.2,0-.5.2-.5.4s0,.5,0,.7,0,.5-.2.7c-.2.2-.5.2-.8.3-1,0-2.1,0-3,.5-.1,0-.3.2-.2.4,0,0,.1.1.2.2.7.4,1.2.7,2,.7s1.6-.1,2.2-.6Z"/>
  <path class="st5" d="M22.4,49.8c0,.3.2.5.4.7.6.6,1.3,1,2.1,1.3.2.1.5.2.7.2.7,0,1.2-.7,1.2-1.3,0-.1,0-.3-.1-.3-.2-.3-.7,0-1,0-.2-.1-.3-.4-.1-.7s.3-.4.5-.6c.4-.4.8-1,.6-1.5,0-.2-.3-.5-.4-.6-.4-.4-.8-.8-1.2-1.3-.5-.5-1.1-1.1-1.7-1.4-.2,0-.4-.1-.6-.1-1.2.1-.8,1.9-.3,2.5s.4.6.3,1.1-.5,1.3-.3,1.9Z"/>
</svg>