<?xml version="1.0" encoding="UTF-8"?>
<svg id="Layer_1" xmlns="http://www.w3.org/2000/svg" version="1.1" viewBox="0 0 32.3 64">
  <!-- Generator: Adobe Illustrator 30.1.0, SVG Export Plug-In . SVG Version: 2.1.1 Build 136)  -->
  <defs>
    <style>
      .st0 {
        fill: #9ea3a4;
      }

      .st1 {
        fill: #e4eaeb;
      }

      .st2 {
        fill: #f79f9a;
      }

      .st3 {
        fill: #9ca1a3;
      }

      .st4 {
        fill: #bac0c3;
      }

      .st5 {
        fill: #e5eaeb;
      }

      .st6 {
        fill: #9ca3a6;
      }

      .st7 {
        fill: #e1e8e9;
      }

      .st8 {
        fill: #e3eaeb;
      }

      .st9 {
        fill: #bac3c7;
      }

      .st10 {
        fill: #bcc4c7;
      }

      .st11 {
        fill: #b9c0c3;
      }

      .st12 {
        fill: #bdc3c6;
      }

      .st13 {
        fill: #9ba0a3;
      }

      .st14 {
        fill: #bbc2c4;
      }

      .st15 {
        fill: #9a9fa1;
      }

      .st16 {
        fill: #bac3c5;
      }

      .st17 {
        fill: #a0a4a5;
      }

      .st18 {
        fill: #a6abad;
      }

      .st19 {
        fill: #b5bdc1;
      }

      .st20 {
        fill: #e6ebec;
      }

      .st21 {
        fill: #bbc3c6;
      }

      .st22 {
        fill: #b8c2c4;
      }

      .st23 {
        fill: #999fa1;
      }

      .st24 {
        fill: #bbc2c5;
      }

      .st25 {
        fill: #b8c0c3;
      }

      .st26 {
        fill: #bac1c4;
      }

      .st27 {
        fill: #e1e5e6;
      }

      .st28 {
        fill: #e6eaeb;
      }

      .st29 {
        fill: #a7abae;
      }

      .st30 {
        fill: #388aca;
        stroke: #1b3f1c;
        stroke-miterlimit: 10;
      }

      .st31 {
        fill: #b6bfc2;
      }

      .st32 {
        fill: #a5aaac;
      }

      .st33 {
        fill: #a8aeb1;
      }

      .st34 {
        fill: #e8eef0;
      }

      .st35 {
        fill: #9ba0a2;
      }

      .st36 {
        fill: #fdecc5;
      }

      .st37 {
        fill: #bac3c6;
      }

      .st38 {
        fill: #e4e9ea;
      }

      .st39 {
        fill: #b9c0c4;
      }

      .st40 {
        fill: #bfc4c7;
      }

      .st41 {
        fill: #b7bfc3;
      }

      .st42 {
        fill: #9da2a4;
      }

      .st43 {
        fill: #b6bec2;
      }

      .st44 {
        fill: #b4bdc0;
      }

      .st45 {
        fill: #bcc2c4;
      }

      .st46 {
        fill: #b7c0c3;
      }

      .st47 {
        fill: #c8c9c9;
      }

      .st48 {
        fill: #e5e9eb;
      }

      .st49 {
        fill: #e3e9ea;
      }

      .st50 {
        fill: #b9c2c6;
      }

      .st51 {
        fill: #b8c0c4;
      }

      .st52 {
        fill: #e3e8e9;
      }

      .st53 {
        fill: #b8c1c5;
      }

      .st54 {
        fill: #e6ebeb;
      }

      .st55 {
        fill: #e2e9eb;
      }

      .st56 {
        fill: #a2a7a9;
      }

      .st57 {
        fill: #b9c1c5;
      }
    </style>
  </defs>
  <path class="st36" d="M32,16.2l-2.3,1.2c-2.1,1.4,0,8.6-1.6,10.8,0,4.4-3.7,3.5-4.8,3.4-3.2-.2-10.7,0-14.4,0s-4.1-2.9-4.2-2.8c-1.7,0-1.8-11.4-1.8-11.4l-1.2-2c-.2-.4-1.9-.9-1.9-1.4V0h32.3s0,16.2,0,16.2Z"/>
  <path class="st2" d="M32.4,17.2c-.9,1-2.3,1.7-2.7,3-.9,3.5-.2,7.6-1.4,11-1.7,5.1-5.1.4-8.4.5-3.3,0-6.9-.2-10,.5-1.9.6-3.9,2.6-5.9,1.2C-.8,29.7,2.5,20.8.7,15.8c-.2-.9-1.7-2.3-.9-2.8.9-.5,3.5,1,3.8,2.2,1.7,3.7-1.6,13.9,2.9,15.2,2.2.3,7-.6,11.1-.9,3.1-.6,7.9.9,9.6-2.3,1.7-3.2-.1-8.1,2.1-11.1,1.1-1.5,4.6-1.2,3.2.9h0Z"/>
  <path class="st47" d="M8.7,35.9c0,.3.3,1.2.5,1.4,2.3.3,4.7-2.2,7-1.6.8.1,1.5.5,2.3.5s3,1.5,3.1.4c0-.8.1-4.3-.5-4.5s-3.1,0-3.7.1h-4.5c-1,0-2.7-.3-3.5.5s-.9,2.5-.7,3.3h0Z"/>
  <g id="Generative_Object">
    <g>
      <path class="st21" d="M11.9,33.3c-.1-1.3-.2-2.7.2-4h5.6c.4,1,.2,2.9.2,4h-6Z"/>
      <path class="st9" d="M13.1,6.9c-.2,0,0-2.2,0-2.4.2-1.3.9-2.4,1.9-3,1-.6.2,0,.2-.3,1.7,0,3.3,1.1,3.8,3.1.5,2,0,1.2.1,1.8-.5.1-.9,0-1.3.1,0-.8,0-2.1-.8-2.3s-.7,0-.7.3c0,.8,0,1.5.2,2.1l-3.5.6h0Z"/>
      <path class="st17" d="M12.1,29.3c-.4,1.3-.3,2.7-.2,4l-3.8.2c0-.7-.3-4.2.7-4,1.1-.2,2.2-.2,3.3-.2Z"/>
      <path class="st37" d="M12.7,28.8v-2.5c1.5-.3,3-.7,4.6-.7l.2,3.3h-4.8Z"/>
      <path class="st6" d="M15.3,1.1s-.1.2-.2.3c-1,.6-1.6,1.7-1.9,3s-.2,2.4,0,2.4l-2.4.6c.1-1.1,0-2.2.3-3.3s1.1-2.2,2.1-2.7,1.5-.4,2.2-.4h0Z"/>
      <path class="st34" d="M17.9,33.3c0-1.1.2-3-.2-4h2.7c.2,1,.3,3,0,4h-2.5Z"/>
      <path class="st0" d="M12.6,26.2v2.5c.1,0-3.4.2-3.4.2,0-.7,0-1.4.1-2,1.1-.4,2.2-.5,3.2-.8h.1Z"/>
      <path class="st10" d="M20.4,33.4c.2-1,.2-3,0-4h1.4c.8.2.7,3.3.5,4h-1.9Z"/>
      <path class="st8" d="M17.5,28.8l-.2-3.3c.6-.2,1.3-.2,1.9-.2l.2,3.6h-1.9Z"/>
      <path class="st22" d="M19.4,28.9l-.2-3.6c.5-.1,1.1-.1,1.7-.1l.3,3.8h-1.8Z"/>
      <path class="st46" d="M12.7,24.4v-1.1c1.5-.3,3-.6,4.5-.7v1.1s-4.5.7-4.5.7Z"/>
      <path class="st39" d="M12.8,21.5c-.1-.4,0-.8,0-1.2,1.5-.3,2.9-.5,4.3-.7v1.2l-4.4.7h0Z"/>
      <path class="st25" d="M12.9,18.6c-.3-.4,0-.5-.2-1.1,1.4-.4,2.8-.6,4.3-.8v1.2c-1.3.2-2.7.4-4.1.7Z"/>
      <path class="st41" d="M12.8,15.6v-1.1c1.3-.3,2.7-.6,4.1-.7v1.1l-4.1.7Z"/>
      <path class="st57" d="M12.9,12.7v-1.1c1.3-.3,2.6-.5,3.9-.7v1.2l-4,.6h.1Z"/>
      <path class="st16" d="M12.9,8.7c1.2-.3,2.4-.6,3.7-.7v1.2c-1.2.1-2.4.4-3.7.6,0,0,0-1.1,0-1.1Z"/>
      <path class="st46" d="M12.7,25.7c0-.2,0-.5-.1-.7-.2.2-.5.3-.6,0,1.7-.4,3.5-.7,5.3-.9.1.2,0,.5,0,.8l-4.6.7h0Z"/>
      <path class="st11" d="M12.8,22.8c-.2-.2,0-.5,0-.8,1.5-.3,3-.6,4.5-.7v.8l-4.4.7h-.1Z"/>
      <path class="st15" d="M12.7,23.3v1.1l-3.2.8v-1.1c1-.4,2.1-.5,3.1-.7h0Z"/>
      <path class="st4" d="M12.9,19.8c-.1-.3-.2-.4-.2-.7,1.5-.3,2.9-.6,4.3-.7v.8l-4.2.7h0Z"/>
      <path class="st23" d="M12.8,20.3c0,.4-.1.8,0,1.2l-3.1.7v-1.2c1-.4,2-.5,3-.7h.1Z"/>
      <path class="st26" d="M12.8,16.9v-.8c1.4-.3,2.8-.5,4.2-.7v.8s-4.2.7-4.2.7Z"/>
      <path class="st11" d="M12.8,14v-.7c1.3-.3,2.7-.5,4-.7v.8l-4.1.6s.1,0,.1,0Z"/>
      <path class="st14" d="M12.9,11.1v-.8c1.2-.4,2.5-.5,3.8-.7,0,.2.1.5,0,.8l-3.9.7h.1Z"/>
      <path class="st35" d="M12.7,17.5c.1.6,0,.7.2,1.1l-2.9.7v-1.1c.9-.5,1.8-.4,2.7-.6h0Z"/>
      <path class="st33" d="M11.9,25.1c.1.2.4.2.6,0,.1.2.1.5.1.7-1.2.3-2.4.5-3.6.9s-.4-.2-.5-.4c0-.6,2.7-1,3.2-1.1h.2Z"/>
      <path class="st18" d="M12.7,22v.8l-3.5.9c-.2,0-.4-.3-.4-.4,0-.6,3.3-1.1,3.8-1.2h0Z"/>
      <path class="st13" d="M12.8,14.5v1.1l-2.7.7v-1.2c.9-.4,1.8-.5,2.6-.6h.1Z"/>
      <path class="st38" d="M16.6,6.3c-.1-.7-.2-1.4-.2-2.1s.5-.4.7-.3c.8.2.7,1.5.8,2.3l-1.3.2h0Z"/>
      <path class="st45" d="M13,8.2v-.8c1.2-.3,2.4-.5,3.7-.6v.8s-3.7.6-3.7.6Z"/>
      <path class="st18" d="M12.7,19.1c0,.3,0,.5.2.7-1.2.2-2.2.5-3.4.8s-.4-.2-.4-.3c-.1-.7,3.1-1.1,3.6-1.2Z"/>
      <path class="st42" d="M12.9,11.6v1.1l-2.5.7c0-.3,0-.9.1-1.1.8-.4,1.6-.4,2.4-.6h0Z"/>
      <path class="st32" d="M12.8,16.2v.8l-3.2.8c-.2,0-.3-.3-.3-.4s0-.3.2-.4c1.1-.4,2.2-.6,3.2-.8h.1Z"/>
      <path class="st3" d="M12.9,8.7v1.1l-2.4.6v-1.1c.8-.3,1.6-.4,2.3-.6h0Z"/>
      <path class="st32" d="M12.8,13.3v.7l-2.9.8c-.2,0-.4-.2-.4-.3-.2-.7,3-1.1,3.3-1.1h0Z"/>
      <path class="st56" d="M12.8,10.3v.8l-2.8.7c-.2,0-.3-.2-.4-.3s0-.4.3-.4c1-.3,1.9-.6,2.9-.7h0Z"/>
      <path class="st29" d="M13,7.4v.8c-.9.2-1.7.4-2.6.7s-.4-.1-.4-.3,0-.3.2-.4c.9-.4,1.8-.5,2.8-.8Z"/>
      <path class="st55" d="M17.3,23.7v-1.1c.5-.2,1.1-.2,1.7-.2.1.4,0,.8,0,1.2l-1.8.2h0Z"/>
      <path class="st7" d="M17.2,20.8v-1.2l1.8-.2v1.1c-.5.2-1.1.2-1.7.3h0Z"/>
      <path class="st49" d="M17,16.7c.6,0,1.2-.2,1.8-.2v1.2l-1.7.2v-1.2h0Z"/>
      <path class="st49" d="M16.9,15v-1.1c.5,0,1.1-.2,1.6-.2.2.4,0,.8.2,1.1-.6,0-1.2,0-1.8.2Z"/>
      <path class="st41" d="M19.1,23.5v-1.2c.5,0,1.1-.1,1.7-.1,0,.4.1.8.1,1.2-.6.2-1.2,0-1.7.1h-.1Z"/>
      <path class="st1" d="M16.8,12.1c-.1-.4,0-.8,0-1.2l1.6-.2v1.1c-.4.1-1,.2-1.5.2h-.1Z"/>
      <path class="st44" d="M19.2,24.8v-.8c.5,0,2.5-.5,2.4.3s-1.8.5-2.4.5Z"/>
      <path class="st51" d="M19.1,21.9v-.8c.4,0,2.4-.5,2.3.2s-.2.4-.4.4h-1.9s0,.2,0,.2Z"/>
      <path class="st52" d="M16.6,8c.5,0,1-.2,1.5-.2.1.4,0,.8.2,1.1-.5.1-1,.2-1.6.2v-1.2h-.1Z"/>
      <path class="st25" d="M19,20.5v-1.1c.4,0,.9-.1,1.4-.1,0,.4.1.8,0,1.1-.5.2-1.1,0-1.5.1h.1Z"/>
      <path class="st19" d="M18.8,19v-.8c.4,0,2.2-.5,2.2.2s-1.7.5-2.2.6Z"/>
      <path class="st53" d="M18.8,17.7v-1.2c.5,0,.9-.2,1.4-.1v1.1c-.5.1-1,0-1.5.1h.1Z"/>
      <path class="st4" d="M18.7,16c-.1-.2,0-.5,0-.8.5,0,2.1-.4,2.2.2s-1.5.6-2.1.6c0,0-.1,0-.1,0Z"/>
      <path class="st43" d="M18.5,13.1c-.1-.2,0-.5-.1-.8.5,0,2.1-.5,2.1.2s-1.5.5-2,.6Z"/>
      <path class="st50" d="M18.6,14.8c-.1-.4,0-.8-.2-1.1.5,0,.9-.2,1.4-.1,0,.4.1.8,0,1.1h-1.3.1Z"/>
      <path class="st48" d="M17.3,25v-.8c.7,0,1.3-.2,2-.2v.8l-1.9.2h-.1Z"/>
      <path class="st24" d="M18.3,10.2v-.8c.3,0,2.2-.5,2,.3s-1.4.4-1.9.5h-.1Z"/>
      <path class="st31" d="M18.4,11.8v-1.1c.3,0,.7-.1,1.2,0,0,.3.1.7,0,1.1-.4.3-.9,0-1.3.1h0Z"/>
      <path class="st20" d="M17.2,22v-.8c.6,0,1.2-.2,1.8-.2v.8l-1.9.2h.1Z"/>
      <path class="st12" d="M18.3,9c-.2-.3,0-.8-.2-1.1.4,0,.8-.2,1.3,0,0,.3.1.7,0,1.1-.4.2-.8,0-1.2.1h.1Z"/>
      <path class="st28" d="M17.1,19.1v-.8c.6,0,1.2-.3,1.8-.2v.8l-1.8.2Z"/>
      <path class="st40" d="M18.1,7.4v-.8c.4,0,2.1-.5,1.9.3s-1.4.4-1.9.4h0Z"/>
      <path class="st5" d="M17,16.2v-.8l1.7-.2v.8l-1.8.2h0Z"/>
      <path class="st54" d="M16.8,13.3v-.8l1.7-.2c0,.3,0,.5.1.8l-1.7.2h-.1Z"/>
      <path class="st28" d="M16.7,10.4v-.8c.5,0,1-.2,1.6-.2v.8l-1.6.2Z"/>
      <path class="st27" d="M16.6,6.8c.5,0,1-.2,1.5-.2v.8l-1.5.2v-.8Z"/>
    </g>
  </g>
  <path class="st30" d="M26.4,56.8c-3.2,6.1-16.1,5.7-20.8,1.6-4-4-1.4-9.9-.7-15,.4-1.8.6-3.9,1.7-5.4,1.5-2,5.3-2.1,7.9-2.4,1.3-.1,2.4-.3,3.6-.3,4.8.5,8.1,4,8.5,9,.5,4.1,1.2,8.8-.3,12.3v.2Z"/>
</svg>