<?xml version="1.0" encoding="UTF-8"?>
<svg id="Layer_1" xmlns="http://www.w3.org/2000/svg" version="1.1" viewBox="0 0 32.3 64">
  <!-- Generator: Adobe Illustrator 30.1.0, SVG Export Plug-In . SVG Version: 2.1.1 Build 136)  -->
  <defs>
    <style>
      .st0 {
        fill: #f79f9a;
      }

      .st1 {
        fill: #fdecc5;
      }
    </style>
  </defs>
  <path class="st1" d="M32,16.2l-2.3,1.2c-2.1,1.4,0,8.6-1.6,10.8,0,4.4-3.7,3.5-4.8,3.4-3.2-.2-10.7,0-14.4,0s-4.1-2.9-4.2-2.8c-1.7,0-1.8-11.4-1.8-11.4l-1.2-2c-.2-.4-1.9-.9-1.9-1.4V0h32.3s0,16.2,0,16.2Z"/>
  <path class="st0" d="M32.4,17.2c-.9,1-2.3,1.7-2.7,3-.9,3.5-.2,7.6-1.4,11-1.7,5.1-5.1.4-8.4.5-3.3,0-6.9-.2-10,.5-1.9.6-3.9,2.6-5.9,1.2C-.8,29.7,2.5,20.8.7,15.8c-.2-.9-1.7-2.3-.9-2.8.9-.5,3.5,1,3.8,2.2,1.7,3.7-1.6,13.9,2.9,15.2,2.2.3,7-.6,11.1-.9,3.1-.6,7.9.9,9.6-2.3,1.7-3.2-.1-8.1,2.1-11.1,1.1-1.5,4.6-1.2,3.2.9h0Z"/>
</svg>