<?xml version="1.0" encoding="UTF-8"?>
<svg id="Layer_1" xmlns="http://www.w3.org/2000/svg" version="1.1" viewBox="0 0 30.9 64">
  <!-- Generator: Adobe Illustrator 30.1.0, SVG Export Plug-In . SVG Version: 2.1.1 Build 136)  -->
  <defs>
    <style>
      .st0, .st1 {
        fill: #f79f9a;
      }

      .st1, .st2 {
        display: none;
      }

      .st2, .st3 {
        fill: #fdecc5;
      }

      .st4 {
        fill: #fcc5bc;
      }

      .st5 {
        fill: #f0f0f0;
        stroke: #c8c9c9;
        stroke-miterlimit: 10;
      }
    </style>
  </defs>
  <path class="st2" d="M.4,15.8c2.3,1.1.5,10.9,2.2,12.7.2.2,2.2,1.1,2.4,1.1.7-.3,2.4-4.4,2.3-5.3,0-5.2,3.1-9.7,4.4-14.6.3-1.3.8-4.4,1.2-5.5s2.2-1.8,2.2-1.8c0,0,3.2,3,2.9,3.4,1,.2,2.2,1.4,2.8,2.5,1.4,2.6,1.5,6.1,1.8,9.4.2,2.6,1.5,3.8,1.5,6.5-.2,2,2.4,5.8,3.6,2.9.4.8.6.3.8,0,1.7-2.2.2-9.7,2.3-11.2h0l.2-15.9L.2.4l.2,15.4H.4Z"/>
  <path class="st1" d="M1.6,16c2.3,1.1,0,10.2,1.6,12,1.6,1.8,2.1.5,2.3.5.7-.3.7-2.4,1-3.3,2-6.2.8-8.4,2.2-13.4s4-5.1,3.6-4.2c-1.4,2.8-.4,4-1.2,7.4-.8,3.4-3,9.4-2.8,12.5s-2.2,3-3.5,3c-2.4.4-3.7-2.2-3.8-5.7l.2-5.8-.8-1.7c0-.5,0-1.1.4-1.5h.8s0,.2,0,.2Z"/>
  <path class="st1" d="M20.7,10.2c.6,2.4.3,3,.7,5.4.3,3,.4,3.4.3,6.5l2,3.2c0,1.5,1.3,2.5,2,3.8s.8.9,1.4,1,1.6.4,2.1-.3c1.2-1.4,1.3-2.1,1.3-4.2v-10.2h-.2c-2.1,1.5-.7,9-2.3,11.2-.2.3-1.8-.3-2-.7-.5-.8-1-2.1-1-3.2,0-2.7-1.3-5.4-1.5-8-.3-3.2.4-3.9-1-6.4-.1-.2-.3-.5-.4-.8-.2-.6-.8-1-1.4-1s-.7.3-.6.7c.2.8.2,2.2.6,3Z"/>
  <path class="st3" d="M30.8,17.9h-.5l-1.8-.6c-2.1,1.4,0,8.6-1.6,10.8,0,4.4-2.2,3.8-2.5,3,0-.2-1.2.5-2.3.4-3.2-.2-10.7,0-14.4,0s-4.1-2.9-4.2-2.8c-.2,0-1.8-11.4-1.8-11.4l-1.2-2c-.2-.4-.4-.8-.4-1.3V0h30.7v17.9h0Z"/>
  <path class="st0" d="M32,17c-.9,1-2.3,1.7-2.7,3-.9,3.5-.2,7.6-1.4,11-1.7,5.1-5.1.4-8.4.5-3.3,0-6.9-.2-10,.5-1.9.6-3.9,2.6-5.9,1.2C-1.2,29.5,2.2,20.6.3,15.6c-.2-.9-.5-2.2.3-2.7.9-.5,2.4.9,2.6,2.1,1.7,3.7-1.6,13.9,2.9,15.2,2.2.3,7-.6,11.1-.9,3.1-.6,7.9.9,9.6-2.3,1.7-3.2-.1-8.1,2.1-11.1,1.1-1.5,4.6-1.2,3.2.9h0Z"/>
  <path class="st5" d="M14.1,3.7c-3,5.4-2.9,12.8-4.1,18.9-.7,6.5-3.6,11.5-4.6,17.8-.7,4,.9,7.5,2.3,11.2,1.4,4.9,4.2,12.8,10.3,10.7,4.9-2,8.4-11.4,9.1-16.3.5-3.5.5-7.6-1.2-10.9-1.4-2.7-3-4.8-3.3-7.9-.8-4.6-1.3-12.9-2.3-17.4-.4-2.5-1.9-4.5-3.6-6.2"/>
  <path class="st4" d="M17,5.1c.2,1.1-.1,3.2-.1,4.4,0,3,.4,6.4.2,9.1-.3,4.5,0,9.8,0,9.8-.3,3.2,1.5,4.7,1.7,8.9,0,1.1-.7,7.8-2.2,9.6-1.1,1.3-3.1-8-2.8-9.6.5-2.9,1.5-7,1.8-8.6v-3.8c0-.3.2-6.4.2-6.7.5-3.3,0-5.8-.6-9.3-.8-3-1.8-5.3-1-6.5.5-.9,2.3-1.1,2.8-.2.2.4-.4.6,0,2.9Z"/>
</svg>