<?xml version="1.0" encoding="UTF-8"?>
<svg id="Layer_1" xmlns="http://www.w3.org/2000/svg" version="1.1" viewBox="0 0 30.8 64">
  <!-- Generator: Adobe Illustrator 30.1.0, SVG Export Plug-In . SVG Version: 2.1.1 Build 136)  -->
  <defs>
    <style>
      .st0, .st1 {
        fill: #f79f9a;
      }

      .st2 {
        fill: #fefdfd;
      }

      .st3, .st1, .st4 {
        display: none;
      }

      .st3, .st5 {
        fill: #c9cac9;
      }

      .st6 {
        fill: #f6a09b;
      }

      .st7 {
        fill: #fcc5bc;
      }

      .st8 {
        fill: #fefefe;
      }

      .st9 {
        fill: #fdecc5;
      }

      .st4 {
        fill: #c8c9c9;
        stroke-width: .5px;
      }

      .st4, .st10 {
        stroke: #c8c9c9;
        stroke-miterlimit: 10;
      }

      .st10 {
        fill: #f0f0f0;
      }
    </style>
  </defs>
  <path class="st1" d="M.5,15.6c2.3,1.1.9,9.6,2.6,11.5,1.7,1.9.4.3.6.3.7-.3.7-2.4.7-3.3,0-5.3,0-10.7,1.4-15.7s.8-2.6,1.5-3.7,1.3-1.5,2.2-1.7c0,0,.2.2.3,0v.2c.2.3.2.7.2,1.1-.7,0-1.3.5-1.8,1.4-1.4,2.8-2.1,7.7-2.3,11.2-.2,3.5-.2,6.4,0,9.6s.2,2.7.2,4.2-.2,2.8-.6,4.1c-2.4.4-4.7-2.7-4.7-6.3v-13.1s-.3.2-.3.2Z"/>
  <path class="st1" d="M26.6,35.1c-1.9-7.8,2.9-27.5-4.4-29.8,0,1.8-.4,1.5-.5,0-3.5-2-1.2,16.3-4.3,19.3-4,5.7-5.4-10.8-5.2-13.7.6-6.1-2.1-4.8-1.5-7.6,4.9,3,1.3,14.6,4,19.3.6,1.1,2.3.6,2.2-.7,0-.8.6-1.9.6-4s0-1.7.1-3.8c.3-2.6.1-3.3.3-4.8.5-4.8,1-4.3,1.2-4.8.7-1.2,1.2-.7,1.8-1.1-.5-1.1-3-.7-3.9-1-.5-1.1,10,.7,11.4.5.9,1-5.8-.8-6.1.3,7.9,3.3,2.2,21.1,6,24,1.7-2.2.3-9.9,2.4-11.4,2.1-1.5,0,0,0,0-.7,4.4,2.6,19-4.8,19.2h.2c0,0,.5,0,.5,0Z"/>
  <path class="st9" d="M30.7,17.9l-.7-1-1.7,1.2c-1.1.1-1,.9-1,2,0,2.1-.4,4.9,0,7.3s-.9,4.4-2.4,3.8c-4.9-1.8-14.3-1.4-17.3-1.4s-4.7-.7-4.8-.7c-.6-1.1-1.5-3.5-1.1-5.9.3-1.7.2-3.5.1-4.7s-.3-1.4-.6-2.1L0,15.2V0h30.7v17.9h0Z"/>
  <path class="st0" d="M31.2,17.2c-.8.4-1.5.3-1.6,1.1-.6,3.7.4,8.7-.9,12.4-.7,2.2-3.3,3.2-5.3,2.3-1.1-.5-1.5-1.7-2.7-1.9-3.9-.4-8.9,0-12.4.3-.9.1-1.3,1-1.9,1.5-1,.9-2.3.8-3.4,0-5.4-4.2,0-13.1-3.2-18.1-.2-.5,0-.8.5-.9,3.9-.7,2.6,9,2.9,11.5.2,1.5-.2,2.9,1,3.5,2.6,1,14.1,0,19.5.1,1.6.1,3.1-.3,3.1-2.2,0-3.5.2-7.8.7-11,.2-2.1,2.2-1.8,3.7-1,.8.5.9,1.6.1,2.1h-.1Z"/>
  <path class="st10" d="M12.5,18.9c.3,1.9.9,4.3,2.6,5.3,1.5.9,2.9-.4,3.4-1.8,1.7-4.8.3-10.7,2.2-15.5.8-1.7,2.6-1.5,3.4.2,1,1.9,1.1,4.3,1.4,6.5.3,3.8-.7,7.3-1.6,11-1,4-1.2,8.3,0,12.4,1.8,8,7.5,21.1-2,24.4-1.4.2-2.9-.5-4.5-.9-3-1-5.1,1-8,1.5-8.9,1.4-6.7-14.5-4.9-19.4.9-2.3,1.9-4.7,2.1-7.3.3-5.2-1.1-10.8-.8-15.9.1-3.3.5-6.8,1.2-10.1.2-1.7,2.2-5.9,3.9-3.2,1.4,3.9.9,8.8,1.6,12.6v.2Z"/>
  <path class="st5" d="M10.4,5.6h0c0,0,0,0,0,0h0Z"/>
  <path class="st3" d="M22.3,4.5v.8c-.1,0-1.2,0-1.2,0-.9.3-1.2,2.7-1.2,3.9l-.2,5.2c-.1,3.2-.9,8.7-2.5,11-1.6,2.3-1.9,1.3-2.8.2-.9-1.1-.9-1.4-1.1-2.3-2.3-6.8-2.2-14.6-3.4-17.3,0-.2-.2-.4-.2-.5h.6c0,0,0,0,0,0l-.2-1.8c.8,0,1.6,1.8,1.9,2.9.3,1.1.4,2.8.5,4.3,0,4.5.2,9.1,1.8,13,1.6,3.9.6,1.3,1.1,1.7.8.5,1.5,0,2-1,1.3-2.8,1.9-7.2,2-10.6v-4c.2-1.3.3-2.5.6-3.7.3-1.2,1.6-1.8,2.4-1.8Z"/>
  <path class="st2" d="M25.4,49.2c0,0,0-.2.1-.2v.2c0,1.4,0,2.8-.2,4.2s-1.2,3.2-2.3,4.1-.5.3-.8.2c.1-.4.3-.5.5-.8,1.3-2.2,2.2-4.7,2.6-7.6h0Z"/>
  <path class="st4" d="M19.6,61.9c-2.9-1.6-5.5-1.3-8.4,0-10.8.5-9.3-14.6-7.3-21.7,0,0,1.2-4.1,1.2-4.1v-.8h.3v-.2h-.1c1.5-9.4-1.3-20.1,2.8-29.1,1.4-2.8,2.7-1.4,3.4-1.4l-1.5.8c-5.5,5.2-3.5,17-3.5,24.4-.3,8.5-9.9,33.7,6.7,30.8,2.4-1,.8-.4,1.2-.8.5-.6,1.1-1,1.7-1.4-.9-.4-1.7-.3-2.7-.2,2.1-1.7,5.5.2,7.2.7-2,0-4.2-.9-5.9,1.1,17.9,6.2,14.8-14.1,11.5-25-1.3-6.9.7-14.2-.5-21.2-.5-3.4-1.2-8.2-2.9-8.3,0,0-.3-.2-.5-.2v-.7c5.7,3.1,4.1,18.7,3.9,25.1-.3,4.5,1.5,10,2.3,13.7,0,.4,0,.8.2,1.2,0,0,.3,2.5.3,2,.5,6.2-1.1,16.6-9.3,15.3Z"/>
  <path class="st7" d="M9.6,7.3c.9.8.1,4.4.3,7.2.1,3.9.6,8.2,2.3,11.5.8,1.4,1.5,2.3,2.9,2.5,1,.2,2.2,0,2.9-.6,2.3-1.9,3.8-9.9,4.1-14.3.2-1.3.3-8.1,1.4-3.5.9,4.3-.7,7.2-1.2,11.8-.9,3.6-2.3,7.7-1.8,12.8.3,3.1,1.4,6.8,2,9.7.5,2.9-.8,2.8-3.1,1.5-1.7-.8-2.9-2.6-4.9-2.1-3,.8-5.2,4.2-6.1,3.5-.4-.2-.6-2-.4-2.5.5-2.9,1.4-5.9,1.6-8.8.2-3.1-.2-6.3-.5-9.5-.3-3.1-2.1-18.5.4-19.5h0Z"/>
  <path class="st6" d="M11.3,32c.3-.8.1-1.9,0-2.8.5,2.1.8,5.4.6,7.8,0,.6-.3,1.8-.4,2.2,0,.2,0,0,.2-.6.2-.5.5-1,.8-1.2.2-.1.5-.2.6-.3,0-.2-.1-.4-.2-.7-.7-1.4-.8-3.1-.9-4.8,0-1.2,0-1.9,1.2-.5,2.2,2.1,3.3,0,5.1-1,.5,0,0,2.8,0,4,0,1.1-.6,2.2-1.1,3.1,0,0,0,0,.1,0,.7-.2,1.2.2,1.5,1,.2.6.4,1,.4.8-.7-3.6-.7-7.7.6-11.2,0,1-.3,3.2-.2,4.5-.2,2.8,2.3,7.9,0,9.3-1.2.4-2.9-1.1-4.6-1-1.4,0-2.9,1.3-4.2.5-2-1.9-.3-6.8.4-9h0Z"/>
  <path class="st8" d="M11.6,56.4c1.7-.8,4.5-1.2,6.1.6-1.5-.4-2.9-.4-4.4,0l-2.2.8c-.8.3-1.6.4-2.3,0l2.9-1.4h0Z"/>
</svg>