<?xml version="1.0" encoding="UTF-8"?>
<svg id="Layer_1" xmlns="http://www.w3.org/2000/svg" version="1.1" viewBox="0 0 45 64">
  <!-- Generator: Adobe Illustrator 30.1.0, SVG Export Plug-In . SVG Version: 2.1.1 Build 136)  -->
  <defs>
    <style>
      .st0 {
        fill: #f79f9a;
      }

      .st1 {
        fill: #fefdfd;
      }

      .st2 {
        fill: #f6a09b;
      }

      .st3 {
        fill: #fcc5bc;
      }

      .st4 {
        fill: #fefefe;
      }

      .st5 {
        fill: #fdecc5;
      }

      .st6 {
        fill: #c9cac9;
      }

      .st7 {
        fill: #f0f0f0;
        stroke: #c8c9c9;
        stroke-miterlimit: 10;
      }
    </style>
  </defs>
  <path class="st5" d="M45,15.9l-1.1,1-2.5,1.2c-1.7.1-1.4.9-1.5,2,0,2.1-.6,4.9,0,7.3s-1.3,4.4-3.5,3.8c-7.1-1.8-20.7-1.4-25-1.4s-6.8-.7-6.9-.7c-.8-1.1-2.2-3.5-1.6-5.9.4-1.7.3-3.5.2-4.7s-.4-1.4-.9-2.1L.1,14.9V0c-.1,0,44.9,0,44.9,0v17.9s0-2,0-2Z"/>
  <path class="st0" d="M44.1,17.2c-1.1.4-2.1.3-2.3,1.1-.8,3.7.5,8.7-1.3,12.4-1,2.2-4.6,3.2-7.4,2.3-1.5-.5-2.1-1.7-3.8-1.9-5.4-.4-12.4,0-17.3.3-1.2.1-1.8,1-2.7,1.5-1.3.9-3.2.8-4.7,0-7.6-4.2,0-13.1-4.4-18.1-.3-.5,0-.8.7-.9,5.4-.7,3.6,9,4.1,11.5.2,1.5-.2,2.9,1.5,3.5,3.7,1,19.8,0,27.3.1,2.3.1,4.3-.3,4.3-2.2,0-3.5.3-7.8,1-11,.3-2.1,3.1-1.8,5.1-1,1.1.5,1.2,1.6.2,2.1h-.2Z"/>
  <path class="st7" d="M17.9,18.9c.4,1.9,1.2,4.3,3.6,5.3,2.1.9,4.1-.4,4.8-1.8,2.3-4.8.4-10.7,3.1-15.5,1.1-1.7,3.6-1.5,4.8.2,1.5,1.9,1.6,4.3,1.9,6.5.4,3.8-1,7.3-2.3,11-1.4,4-1.6,8.3,0,12.4,2.6,8,10.5,21.1-2.8,24.4-1.9.2-4.1-.5-6.3-.9-4.2-1-7.2,1-11.2,1.5-12.5,1.4-9.4-14.5-6.9-19.4,1.3-2.3,2.7-4.7,2.9-7.3.4-5.2-1.6-10.8-1.1-15.9.2-3.3.7-6.8,1.7-10.1.3-1.7,3.1-5.9,5.5-3.2,2,3.9,1.2,8.8,2.2,12.6v.2Z"/>
  <path class="st6" d="M15,5.6h0c0,0,.1,0,.1,0h-.1Z"/>
  <path class="st1" d="M36.1,49.2c0,0,0-.2.1-.2v.2c0,1.4,0,2.8-.3,4.2s-1.7,3.2-3.2,4.1-.7.3-1.1.2c.1-.4.4-.5.7-.8,1.8-2.2,3.1-4.7,3.6-7.6h.1Z"/>
  <path class="st3" d="M13.9,7.3c1.3.8.2,4.4.4,7.2.2,3.9.8,8.2,3.2,11.5,1.1,1.4,2.1,2.3,4,2.5,1.4.2,3.1,0,4.1-.6,3.2-1.9,5.4-9.9,5.8-14.3.3-1.3.5-8.1,2-3.5,1.3,4.3-1,7.2-1.7,11.8-1.2,3.6-3.3,7.7-2.5,12.8.4,3.1,2,6.8,2.7,9.7.6,2.9-1.1,2.8-4.4,1.5-2.3-.8-4.1-2.6-6.9-2.1-4.1.8-7.3,4.2-8.6,3.5-.6-.2-.8-2-.6-2.5.7-2.9,2-5.9,2.2-8.8.2-3.1-.2-6.3-.6-9.5-.4-3.1-2.9-18.5.6-19.5h.1Z"/>
  <path class="st2" d="M16.3,32c.4-.8.2-1.9,0-2.8.7,2.1,1.1,5.4.9,7.8,0,.6-.4,1.8-.5,2.2,0,.2,0,0,.3-.6.2-.5.7-1,1.2-1.2.3-.1.6-.2.9-.3,0-.2-.2-.4-.3-.7-1.1-1.4-1.2-3.1-1.3-4.8,0-1.2,0-1.9,1.7-.5,3.1,2.1,4.7,0,7.1-1,.7,0,0,2.8,0,4,0,1.1-.8,2.2-1.6,3.1,0,0,0,0,.2,0,1-.2,1.7.2,2.1,1,.3.6.5,1,.6.8-1-3.6-.9-7.7.8-11.2,0,1-.5,3.2-.3,4.5-.2,2.8,3.3,7.9,0,9.3-1.6.4-4-1.1-6.4-1-2,0-4.1,1.3-5.9.5-2.8-1.9-.4-6.8.5-9h0Z"/>
  <path class="st4" d="M16.7,56.4c2.4-.8,6.3-1.2,8.6.6-2.1-.4-4.1-.4-6.2,0l-3.1.8c-1.1.3-2.2.4-3.2,0l4.1-1.4h-.1Z"/>
</svg>