<svg viewBox="0 0 45 64" xmlns="http://www.w3.org/2000/svg"><path d="m14.5 3.3c.5-.5 1.1-.7 1.8-.7l5.9-.3s.2-.2 0-.3 0-.2-.2-.2l-13.8.8-4.7.2h-.4s0 .4.2.4l7.9-.4c.5 0 .9.2 1.3.4-1.2.2-2.3.7-3.1 1.7s-1.6 2.3-2.1 3.7c-1.9 5-2 10.4-1.9 15.7s0 3-1 3.3-.6 0-.8-.3c-2.5-1.9-.5-10.4-3.8-11.5v-15.8c-0 0 44.9-.2 44.9-.2v15.8h-.1c-3.1 1.5-1 9.2-3.4 11.4s-.9.4-1.2 0c-.7-.8-.6-3.2-.6-4.3 0-2.7 0-5.3-.4-7.9s-1.4-7.2-3.5-9.8-2-1.8-3.4-2c.4-.4.9-.4 1.4-.4l7.5.4h.3s0-.3 0-.3h-.4s-12.7-.6-12.7-.6l-3.9-.2h-.3s0 .3 0 .3h.3s4 .3 4 .3c.7 0 1.3.2 1.7.7-2.2.5-3.3 2.4-3.8 4.4s-.4 2.2-.4 3.4c0 3.1-.2 9.8-2.3 12.1s-.6.5-.9.5c-2.8.2-3.4-8-3.6-10l-.2-3.9c0-2.7-1.2-5.8-4-6.6s0 .1 0 .1z" fill="#fdecc5"/><path d="m-.2 15.9c3.3 1.1 1.4 9.6 3.8 11.5s.5.3.8.3c.9-.3 1-2.4 1-3.3 0-5.3 0-10.7 1.9-15.7s1.2-2.6 2.1-3.7 1.9-1.5 3.1-1.7c0 0 .3.2.5 0 .3.3.2.7.3 1.1-1 0-2 .5-2.6 1.4-2 2.8-3 7.7-3.3 11.2s-.3 6.4 0 9.6.3 2.7.3 4.2-.3 2.8-.8 4.1c-3.5.4-6.9-2.7-6.9-6.3v-13.1.2.2z" fill="#f79f9a"/><path d="m14.3 5.6c0-.2-.3 0-.5-.2v-.8c1.1 0 2.1.8 2.5 1.9s.6 2.8.7 4.3c.2 4.5 0 8.2 2.2 12.1s2 2.4 2.8 2.8c1.1.5 1.6-.2 2.2-1.2 2-2.8 2.8-7.2 2.8-10.6l.2-4c0-1.3.3-2.5.7-3.7s1.2-1.7 2.3-1.7c.1.3 0 .5.1.7h-.5c-1.4.3-1.7 2.7-1.8 3.9l-.3 5.2c-.2 3.2-1.3 8.7-3.5 11s-2.9 1.2-4.5.6-.8-1.8-1.3-2.7c-3.3-6.8-1.5-14.5-3.3-17.2s-.6-.8-1-.7v.2s.2 0 .2 0z" fill="#c9cac9"/><path d="m37.9 35.1c-.7-1.7-.9-3.5-.8-5.4l.4-4.5c.3-3.2.2-6.3-.3-9.4s-.9-5-1.8-7.3-1.9-4.1-4.1-3.9v.7 1.3c-.2 0-.3.2-.4 0 0-.5-.2-1-.2-1.5s0-.5-.1-.7c-1.1 0-1.9.7-2.3 1.7s-.7 2.4-.7 3.7l-.2 4c-.2 3.4-1 7.8-2.8 10.6-.7 1-1.8 1.5-2.9 1s-1.3-1-1.7-1.7c-2.3-3.9-2.4-8.6-2.7-13 0-1.5-.2-2.9-.7-4.3s-1.3-1.9-2.5-1.9c0-.5.2-1 .6-1.4 2.8.9 3.9 4 4 6.7l.2 3.9c0 2 .7 9.5 3.5 9.4s2.7-4.7 2.9-5c.3-2.7.5-4 .6-7.1s0-2.3.4-3.4c.5-2 1.6-3.8 3.8-4.4-.5-.5-1.1-.7-1.7-.7l-4-.3h-.3s0-.3 0-.3h.3s3.9.2 3.9.2l12.7.6h.4s0 .2 0 .3-.2 0-.3 0l-7.5-.4c-.5 0-1 0-1.4.4 1.5.2 2.6.9 3.4 2 2 2.6 3 6.5 3.5 9.8s.4 5.2.4 7.9 0 3.5.6 4.3.9.3 1.2 0c2.4-2.2.4-9.9 3.4-11.4s.1 0 .2 0 0 0 0 0v12.4c0 2.2-.7 4.1-2.4 5.4s-2.8 1.5-4.4 1.4z" fill="#f79f9a"/><path d="m29.8 2.6h1.9c-.2 0-.3.3-.5.4-.5.4-1-.3-1.3-.5s0 .1 0 .1z" fill="#fae1b8"/><path d="m6.8 35.2c.5-1.3.8-2.7.8-4.1s0-2.7-.3-4.2c-.4-3.2-.4-6.4 0-9.6s1.4-8.4 3.3-11.2 1.6-1.4 2.6-1.4v.8s-.6 0-.6 0c-.7.2-1.3.7-1.7 1.4-.7 1.1-1.2 2.3-1.6 3.5-1.5 4.9-1.8 10-1.4 15.1l.4 4.4c.3 2.9-.8 5.4-1.8 8-2.1 5.3-3.9 10.9-1.9 16.6s1.6 3.5 3.2 4.7c3 2.4 6.9 2.5 10.4 1.4s1.2-.4 1.7-.8c.8-.6 1.6-1 2.5-1.4-1.3-.4-2.5-.3-3.9-.2 2.8-1.1 4.8-.8 7.5 0s1.9.5 3 .7c-.9.3-3.2-.3-4.2-.2-1.5 0-3 .4-4.3 1.3 2 0 3.9 0 5.8.6s3.5.8 5.4.6c3.1-.3 5.9-1.8 7.5-4.5s1.7-4 1.8-6.2c.3-4.2-1.1-8.1-2.7-12l-1.3-3.5c-.7-1.8-.8-3.6-.7-5.5l.4-4.2c.4-3.9 0-7.6-.7-11.5s-1-4.3-2-6.3-1.4-2.3-2.1-2c-.2 0-.4-.2-.7-.2v-.7c2.2-.2 3.4 2.1 4.1 3.9s1.5 4.8 1.8 7.3.5 6.2.3 9.4l-.4 4.5c-.2 1.8.1 3.7.8 5.4 0 .3 0 .6.1.9l.2.5c.3.7.5 1 .7 1.7l.2.5c.3 1 .7 1.6 1.1 2.9s.4 1 .4 1.6 0 .2.2.2c.1 0 0 .4 0 .5 0 .2.3.5.3.7 0-.2.4 2.5.4 2v1c.1 1.8.3.8.1 2.7v1.3c-.2.3 0 .5-.2.7s0 .4 0 .6-.5 1.8-.6 2c-.5 1.4-1.3 2.7-2.3 3.8s-2.3 2-3.2 2.3l-.6.2c-.5.2-1 .4-1.5.5s-.3.2-.4.2h-1c-1.3 0 .2.3-2.4 0h-1s-1.6-.5-1.7-.5l-1.4-.4c-.3 0-.6-.2-1-.2h-1.1c-.3 0-2.4 0-2.9.1s-.5 0-.6 0c-.2.1-.6.2-.8.2-.7.2-1.9.7-2.7.7s-1.9.3-2.4 0c0 0-1.8-.2-2.2-.3-.7 0-1.3-.5-1.9-.7-1-.4-1.4-.8-1.8-1s-.3-.4-.6-.5c-.5-.3-.8-.8-1.2-1.2s-.7-1.1-1-1.7l-.2-.4c0-.2-.3-.4-.4-.6-.2-.7-.4-1.3-.6-2s-.2-.9-.3-1.3 0-.7 0-1v-.5c-.2-.8 0-1.5 0-2.3l.2-1.7c.2-1.9 1.2-4.4 1.7-6.1v-.4c.2 0 1.8-4.2 1.8-4.1.2-.3 0-.6 0-.8h-.5s0 0 0 0z" fill="#c8c9c9" stroke="#c8c9c9" stroke-miterlimit="10" stroke-width=".5"/><path d="m12.6 5.5c.2 0 1.7-.5 1.9-.5 0 .7.7 2 .5 2.7-.7 6.1.3 9.6 1.9 15.7s5.4 4.2 5.4 4.2c3.3-1.2 7.2-6 6.8-12-.3-6 .7-5.7.3-8.5s1.7-1.3 1.7-1.7c.2 0 .5 0 .7.2 1.2 4.3 2.1 8.7 2.1 13.2s-.5 5.7-1 8.6l-.6 3.2c-1 6 2.4 9.7 2.1 14.6s-1.5 3.3-3.4 3.5-2.4 0-3.6-.6l-2.1-.9c-2-.8-4.1-.7-6.1.1s-4.6 1.9-6.8 1-2.1-1.9-2.1-3.4.3-3.3.8-4.9l.9-2.9c1-3.2.5-6 0-9.2s-1.1-5.6-1.1-8.6c0-4.7.5-9.2 1.9-13.7s0-.2 0-.3 0 .2 0 .2z" fill="#fcc5bc"/><path d="m16.1 35.2h.2c0-1.1 0-2.3-.4-3.4s0-.2.2-.4c.8 2.2 1.2 4.6 1.2 7s-.6 2.6-1.1 3.8c0 .2.2.2 0 0 .7-1 1.3-2 1.6-3.3.6.8 1.5 1.1 2.5 1.1-.2-.2-.5-.2-.8-.4-.4-.2-.9-.6-1.3-1.1s-.4-.9-.4-1.5c0-1.6-.4-3.1-.6-4.7.7.4 1 1 1.6 1.4 1.4 1.2 2.3 1.7 4.3 1.4s4.7-4.2 4.1-2.3-.4 3.1-.6 4.7-1 1.9-2 2.2-.4 0-.5.2h.9s1.2-.6 1.2-.6c.2-.1.3-.4.6-.5.1.9 1.1 2.8 1.7 3.4 0-.5-.2-.8-.4-1.2-.6-1.2-.8-2.5-.7-3.9 0-2.1.4-4.3 1.4-6.2s.2-.4.3-.5c0 .4-.2.9-.3 1.3-1.1 4.6 1.1 7.1 1.3 9.9s-.7 2.1-1.9 2.2c-2.6.3-4.4-2.3-7.7-1.1l-2.1.8c-.6.2-1.3.3-1.9.3-1.3 0-2-1.2-1.8-2.4.2-2.2 1.4-4.3 1.5-6.5v.3z" fill="#f6a09b"/><path d="m16.1 35.2c0-2.1-.2-3.4-1-5.4s-1.2-3.3-1.7-5c-1.7-6.1-1-11.2-.3-17.2 0-.7 0-1.4.2-2s0-.5 0-.8 0-.7-.3-1.1 0 0 0 0h-.5c-.3-.2-.8-.4-1.3-.4l-7.9.4c-.2 0-.3-.3-.2-.4s.2 0 .4 0l4.7-.2 13.8-.8s.2 0 .2.2v.3s-5.9.3-5.9.3c-.7 0-1.4.2-1.8.7s-.6.9-.6 1.4v.8c-.4 3-.7 5.9-.7 9-.2 6.6 1.4 11.7 5.1 17.1s1.4 1.7 2.3 2.3c2.6 1.7 5-.8 6.4-2.8s2.9-5 3.7-7.9c1.5-5.5.8-10.7.3-16.2h.4c.4 2.8.7 5.6.8 8.5.3 6.1-.8 9.9-2.9 15.3-.2 0-.3.3-.3.5-1 1.9-1.3 4-1.4 6.2s0 2.7.7 3.9.4.7.4 1.2c-.6-.6-1.5-2.4-1.7-3.4-.3.1-.3.4-.6.5l-1.2.6c-.2.1-.6 0-.9 0 0-.2.3-.2.5-.2 1-.3 1.9-1.1 2-2.2s.2-3.2.6-4.7-1.7 1.9-4.1 2.3-2.9-.2-4.3-1.4-.9-1-1.6-1.4c.2 1.7.5 3.2.6 4.7s0 1 .4 1.5.8.9 1.3 1.1.6 0 .8.4c-1 0-1.9-.3-2.5-1.1-.3 1.3-.9 2.3-1.6 3.3q0 .1 0 0c.5-1.2 1.1-2.4 1.1-3.8 0-2.4-.4-4.8-1.2-7 0 .2-.2.2-.2.4.3 1.2.5 2.3.4 3.4h-.2s0-.6 0-.6v-.4z" fill="#e98885"/><path d="m12.6 2.7h1.8c-.4.4-.7.8-1.2.5s-.4-.3-.6-.5z" fill="#fbe0b8"/><path d="m14.3 5.6c.4 0 .8.4 1 .7 1.8 2.7 0 10.4 3.3 17.2s1 1.7 1.7 2.3c1.2 1.1 2.9.9 4.1-.2 2.3-2.3 3.4-7.7 3.5-11l.3-5.2c0-1.2.4-3.7 1.8-3.9v5.6c.1 4.8-.4 10.5-2.7 14.6s-1.5 2.4-2.6 3.2c-2.4 1.7-4.9.4-6.5-1.8s-2.3-4.3-2.8-6.7-.9-4.8-.9-7.3v-7.4s-.1 0-.1 0z" fill="#f0f0f0"/><path d="m12.6 5.5v.3c-1.4 4.4-2 9-1.9 13.7s.6 5.7 1.1 8.6 1 6 0 9.2l-.9 2.9c-.5 1.6-.8 3.2-.8 4.9s.8 2.8 2.1 3.4c2.1 1 4.7-.1 6.8-1s4.1-.9 6.1-.1l2.1.9c1.2.5 2.4.7 3.6.6 1.9-.2 3.3-1.6 3.4-3.5.3-4.9-3-8.6-2.1-14.6l.6-3.2c.5-2.9 1-5.6 1-8.6 0-4.6-.9-8.9-2.1-13.2.8-.2 1.8 1.3 2.1 2 1 2 1.6 4.1 2 6.3.7 3.8 1 7.6.7 11.5l-.4 4.2c-.2 1.9 0 3.7.7 5.5l1.3 3.5c1.5 3.8 2.9 7.7 2.7 12s-.7 4.3-1.8 6.2-4.4 4.2-7.5 4.5-3.6 0-5.4-.6-3.7-.7-5.8-.6c1.3-.9 2.8-1.3 4.3-1.3s3.3.5 4.2.2c-1.1 0-2-.4-3-.7-2.8-.9-4.7-1.2-7.5 0 1.4 0 2.6-.2 3.9.2-.9.4-1.7.8-2.5 1.4s-1.1.6-1.7.8c-3.5 1-7.4.9-10.4-1.4s-2.5-2.8-3.2-4.7c-2-5.7-.3-11.3 1.9-16.6s2.1-5.1 1.8-8l-.4-4.4c-.5-5.1 0-10.2 1.4-15.1s.9-2.4 1.6-3.5 1-1.2 1.7-1.4l.2-.2z" fill="#f0f0f0"/><path d="m18 56c2.5-.8 6.5-1.2 8.9.5-2.2-.4-4.3-.4-6.4 0l-3.3.8c-1.1.3-2.3.4-3.4 0l4.2-1.4z" fill="#fefefe"/><path d="m39.1 49.8c0-.1 0-.2.2-.2s.2 0 .2.2c.2 1.4 0 2.8-.3 4.2s-1.7 3.2-3.3 4.1-.8.3-1.2.2c.2-.4.5-.5.7-.8 1.9-2.2 3.1-4.7 3.8-7.6s0 0 0 0z" fill="#fefdfd"/></svg>