<svg viewBox="0 0 32.3 64" xmlns="http://www.w3.org/2000/svg"><path d="m13.6 1.4s.2 0 .3-.2l-2.9.2c-.5 0-.9.2-1.2.7.3.2.6.5.9.8.6-.5 1.4-1 2.5-1.4h.4s0 0 0 0z" fill="#fdecc5"/><path d="m1.4 15.2c2.4 1.1-1.6 10.8.2 12.7-1 2.3 3.4 3.4 3.6 3.4.7-.3 2.3-5.4 2.3-6.3 0-5.5.7-11.4 2.3-16.6.3-1.3-1.9-3.3-1.1-4.5.6-1 1.3-1.6 2.3-1.8-.2-.2-.5-.4-.9-.4h-5.3 3.3c0-.1 9.6 0 9.6 0s-.7 1.3-.8 1.3c0 0 1.8.9 1.4 1.3 1 .2 1.2 2.5 1.8 3.6 1.4 2.7 2 5.5 2.3 8.9.2 2.7 2 2.5 1.8 5.3 0 1.1-.3 5.8 0 6.6s2.2 2.2 2.3-2.4c1.8-2.3-.4-8.9 1.8-10.4l5.2-.3.2-16.4h-33.4s-.3 15.4-.3 15.4l1.7.4h-.2s-.1 0-.1 0z" fill="#fdecc5"/><path d="m1.3 14.9c6.3-.5-.2 12.6 1.3 14.7s4 1.3 4-.8.8-3.4.8-4.3c0-5.5-.7-13.1.9-18.3.9-3.2-.6-.1 1.7-3.8.7-1.2 2.7-1.1 2.7-.7-.7 0-.8 2.1-1.3 3.1-1.2 2.8-.2 11.2-1.1 15-.9 3.5-1 4-.8 7.3s-.7 3.1-.8 4.7-1.2 2.7-2.5 3.1c-2.4.7-4.9-2.9-4.8-6.6s.4-7.3.4-9.1-.2-.6-.2-2.2-2.3-.9-2.3-2c0 0 2 0 1.9 0s.1 0 .1 0z" fill="#f79f9a"/><path d="m16.1 1.5c.5 0 0 .3.4.8-.2 0 .8.3.6.5.3.3 1.5 1.4 1.5 1.4 0 .2.2.5.4.8s-.3 1.8 0 3.6c.6 2.5 1.5 5.4 1.8 8 .3 3.2 1.9 5.5 1.7 8.8l.2 4.7c-.1 1.9 0 3.8.4 5.6 1.1.1 2.3-.4 3.1-1.4.7-.8 1.4-3.4 1.8-7.1s0-7.5 1-7.5l2.1-1.3 2.2-1.3c.7-.6.3-1.7-.6-1.7h-4.6c-2.2 1.7-.9 11.7-2.6 14-.2.3-1 0-1.1-.6-.5-.8-.1-4.9-.1-6 0-2.8-1.3-5.4-1.5-8.1-.2-3.4-1.3-8.1-2.5-10.7-.6-1.1-1.4-1.7-2.4-1.9 0-.5-1.6-.8-.9-.7l-2.8-.2h-.2c.8 0 1.4.2 2.1.5v-.3s0 0 0 0z" fill="#f79f9a"/><path d="m20.6 1.6h1.3s-.2.3-.4.4c-.3.4-.7-.3-.9-.5z" fill="#fae1b8"/><path d="m8.7 2.4h1.2c-.2.4-.5.8-.8.5s-.3-.3-.4-.5z" fill="#fbe0b8"/><path d="m13.2 1.5c-1.9.9-2.1 8.1-2.5 9.7-.6 3.1.2 4.6-.5 8.6-1 5.1-.4 7-1.4 12 0 5-2.5 5.3-3.6 9.2-.7 6.1-3.2 12.6-1.7 16.6 1.6 4 7.1 4.9 11.5 5.2-1 0-.7 0 0 0 4.1-.3 9.6-.7 11.2-4.7 1.5-3.9.5-10.1-.3-15.1-.7-5.1-3.9-5.9-3.3-10 1.2-5.2-1-14.7-2.6-19.9-.6-4-.4-6.9-2.3-9-1.6-1.3-.8-1.8-2.4-2.2" fill="#f0f0f0" stroke="#c8c9c9" stroke-miterlimit="10"/><path d="m9.7 56.2c1.8-1 3.1-1.6 4.6-1.3 2.3.1 3.9 1.3 5.3 3-1.4-.4-2.9-.4-4.5 0-1.9.6-3.3 1.1-4.8.5-.6-.3-.9-1.3-.6-2.2z" fill="#fefefe"/><path d="m15.3.4c.5.1.7 3 .3 5-.3 2.3-.1 8.6.1 11.1.4 5.8.1 5.2.3 11.3s1.7 8.7 1.2 10.6c-.6 2.9-4.9 3.3-5.1.4s1.1-7.8 1.5-12.5-.2-9.7 0-10.9c.4-3.3.1-7.5-.1-10.4s-.9-3.5 0-4.3c0 0-.6-1 1.9-.4z" fill="#fcc5bc"/></svg>