<?xml version="1.0" encoding="UTF-8"?>
<svg id="Layer_1" xmlns="http://www.w3.org/2000/svg" version="1.1" viewBox="0 0 30.9 64">
  <!-- Generator: Adobe Illustrator 30.1.0, SVG Export Plug-In . SVG Version: 2.1.1 Build 136)  -->
  <defs>
    <style>
      .st0 {
        fill: #f79f9a;
      }

      .st1 {
        fill: #fcc5bc;
      }

      .st2 {
        fill: #fdecc5;
      }

      .st3 {
        fill: #f0f0f0;
        stroke: #c8c9c9;
        stroke-miterlimit: 10;
      }
    </style>
  </defs>
  <path class="st2" d="M.4,15.8c2.3,1.1.5,10.9,2.2,12.7.2.2,2.2,1.1,2.4,1.1.7-.3,2.4-4.4,2.3-5.3,0-5.2,3.1-9.7,4.4-14.6.3-1.3.8-4.4,1.2-5.5s2.2-1.8,2.2-1.8c0,0,3.2,3,2.9,3.4,1,.2,2.2,1.4,2.8,2.5,1.4,2.6,1.5,6.1,1.8,9.4.2,2.6,1.5,3.8,1.5,6.5-.2,2,2.4,5.8,3.6,2.9.4.8.6.3.8,0,1.7-2.2.2-9.7,2.3-11.2h0S31,0,31,0L.2.4l.2,15.4h0Z"/>
  <path class="st0" d="M1.6,16c2.3,1.1,0,10.2,1.6,12s2.1.5,2.3.5c.7-.3.7-2.4,1-3.3,2-6.2.8-8.4,2.2-13.4s4-5.1,3.6-4.2c-1.4,2.8-.4,4-1.2,7.4s-3,9.4-2.8,12.5-2.2,3-3.5,3c-2.4.4-3.7-2.2-3.8-5.7l.2-5.8-.8-1.7c0-.5,0-1.1.4-1.5h.8s0,.2,0,.2Z"/>
  <path class="st0" d="M20.7,10.2c.6,2.4.3,3,.7,5.4.3,3,.4,3.4.3,6.5l2,3.2c0,1.5,1.3,2.5,2,3.8s.8.9,1.4,1,1.6.4,2.1-.3c1.2-1.4,1.3-2.1,1.3-4.2v-10.2c-.1,0-.2,0-.2,0-2.1,1.5-.7,9-2.3,11.2-.2.3-1.8-.3-2-.7-.5-.8-1-2.1-1-3.2,0-2.7-1.3-5.4-1.5-8-.3-3.2.4-3.9-1-6.4-.1-.2-.3-.5-.4-.8-.2-.6-.8-1-1.4-1s-.7.3-.6.7c.2.8.2,2.2.6,3Z"/>
  <path class="st3" d="M14.1,3.7c-1.3-1.8-2,6.4-2.4,8.1-.6,3.1-.9,3-1.5,7.1-.9,4.6-1.2,5.5-2,9.4s-.2,1.3-.2,1.9c-.2,4.3-1.8,4.9-2.6,9.7-.7,5.1.3,5.2,1.9,9.2,1.7,4,5.7,13.5,10.1,13.7-1,0-.7,0,0,0,4.2-.4,6.8-8.4,8.3-12.4.7-3,.4-.8,1.4-7.5,1-6.7-.3-5.9-1.8-8.5-1.5-2.6-.9-1.8-1-3.5s-.2-1-.3-1.6c-1.4-4.7-1.9-10.7-2.9-15.4-.7-4,0-5.8-2-7.9-1.6-1.4-1.1-1.7-2.5-2.5"/>
  <path class="st1" d="M14.1,2.6c.8,0,2.3-.3,2.3.5,0,1.3-.7,3.9-.7,4.3.8,6.5-.2,1.2,1.2,7.5s1.1,13.9,1.5,16.1c1.2,7.1.9,12.5-1.9,15.9-1.1,1.3-3.1-8-2.8-9.6.5-2.9,0-7.7.3-9.3l.4-7.1c.7-3.2.7-7.6.2-11.2-1.2-4.8-.7-5.7-.5-7.2h0Z"/>
</svg>