<svg viewBox="0 0 32.3 64" xmlns="http://www.w3.org/2000/svg"><path d="m18.9 62.3s-.2 0-.3.2l2.9-.2c.5 0 .9-.2 1.2-.7-.3-.2-.6-.5-.9-.8-.6.5-1.4 1-2.5 1.4h-.4z" fill="#fdecc5"/><path d="m30.9 48.4c-2.4-1.1 1.4-10.8-.4-12.7 1-2.3-3.5-3.3-3.7-3.3-.7.3-2.2 5.4-2.2 6.3 0 5.5-.5 11.4-2 16.6-.3 1.3 2 3.3 1.2 4.5-.6 1-1.3 1.6-2.3 1.8.2.2.5.4.9.4 0 0 5.6 0 5.3 0l-3.3.2h-9.6s.7-1.3.8-1.3c0 0-1.8-.9-1.4-1.3-1-.2-1.2-2.5-1.9-3.6-1.4-2.7-2.1-5.5-2.4-8.9-.2-2.7-2-2.5-1.9-5.3 0-1.1.2-5.8-.2-6.6s-2.2-2.2-2.3 2.4c-1.8 2.3.5 8.9-1.6 10.4l-5.2.4v16.4l33.6-.5v-15.4l-1.7-.4h.2z" fill="#fdecc5"/><path d="m31 48.7c-6.3.6 0-12.6-1.5-14.7s-4-1.2-4 .9-.7 3.4-.7 4.3c0 5.5.9 13.1-.6 18.3-.9 3.2.6.1-1.6 3.8-.7 1.2-2.7 1.1-2.7.7.7 0 .8-2.1 1.3-3.1 1.2-2.8 0-11.2.9-15 .8-3.5.9-4 .7-7.3s.7-3.1.7-4.7 1.2-2.7 2.5-3.1c2.4-.7 4.9 2.8 4.9 6.5s-.3 7.3-.3 9.1.2.6.2 2.2 2.3.9 2.3 2c.1 0-2 .1-1.9 0h-.1z" fill="#f79f9a"/><path d="m16.4 62.3c-.5 0 0-.3-.4-.8.2 0-.8-.3-.6-.5-.3-.3-1.5-1.4-1.5-1.4 0-.2-.2-.5-.4-.8s.3-1.8-.1-3.6c-.6-2.5-1.6-5.4-1.9-8-.3-3.2-2-5.5-1.8-8.8l-.3-4.7c.1-1.9 0-3.8-.5-5.6-1.1-.1-2.3.4-3.1 1.4-.7.8-1.3 3.4-1.7 7.1s.1 7.5-.9 7.5l-2.1 1.3-2.2 1.3c-.7.6-.3 1.7.6 1.7l4.6-.2c2.2-1.6.7-11.6 2.4-13.9.2-.3 1 0 1.1.6.5.8.2 4.9.2 6 0 2.8 1.4 5.4 1.6 8.1.3 3.4 1.4 8.1 2.7 10.7.6 1.1 1.4 1.7 2.4 1.9 0 .5 1.6.8.9.7l2.8.2h.2c-.8 0-1.4-.2-2.1-.5v.3z" fill="#f79f9a"/><path d="m11.9 62.2h-1.3c.1 0 .2-.3.4-.4.3-.4.7.3.9.5z" fill="#fae1b8"/><path d="m23.8 61.3h-1.2c.2-.4.5-.8.8-.5s.3.3.4.5z" fill="#fbe0b8"/><path d="m19.3 62.2c1.9-.9 2-8.1 2.4-9.7.6-3.1-.3-4.6.4-8.6.9-5.1.3-7 1.2-12 0-5 2.4-5.3 3.5-9.3.6-6.1 3-12.6 1.4-16.6-1.7-4-7.2-4.8-11.6-5 1 0 .7 0 0 0-4.1.4-9.6.8-11.1 4.9-1.4 3.9-.3 10.1.5 15.1.8 5.1 4 5.8 3.5 9.9-1.1 5.2 1.2 14.7 2.9 19.9.7 4 .5 6.9 2.4 9 1.6 1.3.8 1.8 2.4 2.2" fill="#f0f0f0" stroke="#c8c9c9" stroke-miterlimit="10"/><path d="m22 7.5c-1.8 1-3.1 1.6-4.6 1.4-2.3-.1-3.9-1.2-5.3-2.9 1.4.4 2.9.4 4.5 0 1.9-.6 3.3-1.2 4.8-.6.6.3.9 1.3.6 2.2z" fill="#fefefe"/><path d="m17.3 63.4c-.5-.1-.7-3-.4-5 .3-2.3 0-8.6-.3-11.1-.5-5.8-.2-5.2-.5-11.3s-1.8-8.7-1.4-10.6c.6-2.9 4.8-3.4 5.1-.5s-1 7.8-1.3 12.5.3 9.7.2 10.9c-.3 3.3 0 7.5.3 10.4s1 3.5.1 4.3c0 0 .6 1-1.9.4z" fill="#fcc5bc"/></svg>