<svg viewBox="0 0 30.9 64" xmlns="http://www.w3.org/2000/svg"><path d="m31.2 48.5c-2.3-1.1-.4-10.9-2.1-12.7-.2-.2-2.2-1.1-2.4-1.1-.7.3-2.4 4.4-2.4 5.3 0 5.2-3.2 9.7-4.6 14.6-.3 1.3-.8 4.4-1.3 5.5s-2.2 1.8-2.2 1.8-3.2-3-2.9-3.4c-1-.2-2.2-1.4-2.8-2.5-1.4-2.6-1.4-6.1-1.7-9.4-.2-2.6-1.5-3.8-1.4-6.5.2-2-2.3-5.8-3.6-2.9-.4-.8-.6-.3-.8 0-1.7 2.2-.3 9.7-2.4 11.2h-.1v15.5h30.8v-15.4z" fill="#fdecc5"/><path d="m30 48.3c-2.3-1.1.2-10.2-1.5-12s-2.1-.5-2.3-.5c-.7.3-.7 2.4-1 3.3-2.1 6.2-.9 8.4-2.3 13.4s-4.1 5.1-3.6 4.2c1.4-2.8.4-4 1.3-7.4s3.1-9.4 2.9-12.5 2.2-3 3.5-3c2.4-.4 3.7 2.2 3.7 5.7l-.3 5.8.8 1.7c0 .5 0 1.1-.4 1.5h-.8z" fill="#f79f9a"/><path d="m10.9 53.8c-.6-2.4-.3-3-.6-5.4-.3-3-.4-3.4-.2-6.5l-2-3.2c0-1.5-1.3-2.5-2-3.8s-.8-.9-1.4-1-1.6-.4-2.1.3c-1.2 1.4-1.3 2.1-1.3 4.2v10.2h.1c2.1-1.5.8-9 2.4-11.2.2-.3 1.8.3 2 .7.5.8 1 2.1 1 3.2 0 2.7 1.2 5.4 1.4 8 .3 3.2-.4 3.9.9 6.4.1.2.3.5.4.8.2.6.8 1 1.4 1 .4 0 .7-.3.6-.7-.2-.8-.2-2.2-.6-3z" fill="#f79f9a"/><path d="m17.4 60.4c1.3 1.8 2.1-6.4 2.5-8.1.6-3.1.9-3 1.6-7.1.9-4.6 1.3-5.5 2.1-9.4s.2-1.3.2-1.9c.2-4.3 1.9-4.9 2.7-9.7.8-5.1-.2-5.2-1.8-9.2-1.7-4-5.6-13.6-10-13.8 1 0 .7 0 0 0-4.2.4-6.9 8.3-8.4 12.3-.7 3-.4.8-1.5 7.5s.2 5.9 1.7 8.5.9 1.8 1 3.5.2 1 .3 1.6c1.3 4.7 1.8 10.7 2.7 15.4.7 4 0 5.8 1.9 7.9 1.6 1.4 1.1 1.7 2.5 2.5" fill="#f0f0f0" stroke="#c8c9c9" stroke-miterlimit="10"/><path d="m17.4 61.5c-.8 0-2.3.3-2.3-.5 0-1.3.7-3.9.7-4.3-.7-6.5.2-1.2-1.1-7.5s-1-13.9-1.3-16.1c-1.1-7.1-.8-12.5 2.1-15.9 1.1-1.3 3 8 2.7 9.6-.5 2.9 0 7.7-.4 9.3l-.5 7.1c-.7 3.2-.8 7.6-.3 11.2 1.1 4.8.6 5.7.4 7.2z" fill="#fcc5bc"/></svg>