<svg viewBox="0 0 30.8 64" xmlns="http://www.w3.org/2000/svg"><path d="m20.2 60.8c-.2 1.5-5.9.2-5 1.5 2.2-.6 12.1 0 12.9-1.4-.8 0-5.8.8-6.3 0 7.5-3.5 3.3-20.6 5.8-24.4 2.8.6.6 10.7 3.2 11.8v15.7c-7.6 0-23.2 0-30.8 0v-15.8c2.3-1.3.7-9.2 2.5-11.4 2.8-3.2-.9 23.7 6.1 24-.6 1-5.4-.2-6.3 0 .5.6 11.4 1.5 11.8.9-.9-.5-3.4.1-4.1-1.1 5.5-3.9 1.2-14.9 4.6-19.9 1.5-2.3.4-.5.6-.5 4.2 3.5 1 19.8 5 20.6z" fill="#fdecc5"/><path d="m30.4 48.3c-2.3-1.1-.9-9.6-2.6-11.5s-.4-.3-.6-.3c-.7.3-.7 2.4-.7 3.3 0 5.3 0 10.7-1.4 15.7s-.8 2.6-1.5 3.7-1.3 1.5-2.2 1.7c0 0-.2-.2-.3 0v-.2c-.2-.3-.2-.7-.2-1.1.7 0 1.3-.5 1.8-1.4 1.4-2.8 2.1-7.7 2.3-11.2s.2-6.4 0-9.6-.2-2.7-.2-4.2.2-2.8.6-4.1c2.4-.4 4.7 2.7 4.7 6.3v13.1z" fill="#f79f9a"/><path d="m20.4 58.4c0 .2.2 0 .3.2v.8c-.8 0-1.4-.8-1.7-1.9s-.4-2.8-.5-4.3c0-4.5-.2-9.1-1.8-13s-.6-1.3-1.1-1.7c-.8-.5-1.5 0-2 1-1.3 2.8-1.9 7.2-2 10.6v4c-.2 1.3-.3 2.5-.6 3.7s-.8 1.7-1.6 1.7v-.7h.4c.9-.3 1.2-2.7 1.2-3.9l.2-5.2c.1-3.2.9-8.7 2.5-11s1.9-1.3 2.8-.2.9 1.4 1.1 2.3c2.3 6.8 1 14.5 2.2 17.2s.4.8.7.7v-.2z" fill="#c9cac9"/><path d="m4.3 28.9c1.9 7.8-2.8 27.5 4.5 29.8 0-1.8.4-1.5.5 0 3.5 2 1.2-16.3 4.2-19.3 4-5.7 5.4 10.8 5.2 13.7-.6 6.1 2.1 4.8 1.5 7.6-4.9-3-1.3-14.6-4.1-19.3-.6-1.1-2.3-.6-2.2.7 0 .8-.6 1.9-.6 4 0 .4 0 1.7-.1 3.8-.3 2.6-.1 3.3-.3 4.8-.5 4.8-1 4.3-1.2 4.8-.7 1.2-1.2.7-1.8 1.1.5 1.1 3 .7 3.9 1 .5 1.1-10-.7-11.4-.5-.9-1 5.8.8 6.1-.3-7.9-3.3-2.3-21.1-6.1-24-1.7 2.2-.3 9.9-2.4 11.4s0 0-.1 0c.7-4.4-2.7-19 4.7-19.2h-.2z" fill="#f79f9a"/><path d="m9.7 61.4c-.5 0-.8 0-1.3 0 .1 0 .2-.3.4-.4.3-.4.7.3.9.5z" fill="#fae1b8"/><path d="m25.6 28.9c-1.5 9.4 1.4 20.1-2.7 29.1-1.4 2.8-1.1 1.4-1.8 1.4v-.8c5.5-5.2 3.4-17 3.4-24.4.3-8.5 9.8-33.7-6.8-30.8-2.4 1-.8.4-1.2.8-.5.6-1.1 1-1.7 1.4.9.4 1.7.3 2.7.2-2.1 1.7-5.5-.2-7.2-.7 2-.1 4.2.9 5.9-1.1-17.9-6.1-14.8 14.1-11.4 25 1.3 6.9-.7 14.2.6 21.2.5 3.4 1.2 8.2 2.9 8.3.1 0 .3.2.5.2v.7c-5.7-3.1-4.2-18.7-4-25.1.3-4.5-1.5-10-2.3-13.7 0-.4-.1-.8-.2-1.2 0 .2-.3-2.5-.3-2-.5-6.2 1.1-16.6 9.3-15.3 2.9 1.6 5.5 1.3 8.4 0 10.8-.5 9.3 14.6 7.4 21.7 0 0-1.2 4.2-1.2 4.1v.8h-.3z" fill="#c8c9c9" stroke="#c8c9c9" stroke-miterlimit="10" stroke-width=".5"/><path d="m22.2 57c-.5.7-1.6.9-2.2.3s-.2-.3-.2-.5c.5-6.1.4-9.2-.8-15.3s-1-3.2-1.4-4.8-.6-2.7-2.7-2.7-2.1 1.2-3.6 5.7c-1.3 3.9-.4 1.4-.9 3.9-1 5.6-.4 2.2-.2 8.2s-.5 1.7-.2 4.5-1.6 1.1-1.8.9c-.8-4.3-1.4-8.7-1.4-13.2s.4-5.7.7-8.6l.4-3.2c.7-6-1.6-9.7-1.4-14.6s1-3.3 2.3-3.5 1.7 0 2.5.6l1.5.9c1.4.8 2.8.7 4.2-.1s3.2-1.9 4.6-1 1.4 1.9 1.4 3.4-.2 3.3-.5 4.9l-.6 2.9c-.7 3.2-.4 6 0 9.2s.7 5.6.8 8.6v12.8l-.4.7z" fill="#fcc5bc"/><path d="m19.2 28.9c0 1.1 0 2.3.3 3.4s0 .2 0 .4c-.5-2.2-.8-4.6-.8-7s.4-2.6.8-3.8c0-.2 0-.2 0 0-.5 1-.9 2-1.1 3.3-.4-.8-1.1-1.1-1.7-1.1 0 .2.4.2.6.4.3.2.7.6.9 1.1s.3.9.3 1.5c0 1.6.2 3.1.4 4.7-.5-.4-.7-1-1.1-1.4-.9-1.2-1.6-1.7-2.9-1.4s-3.2 4.2-2.8 2.3.3-3.1.4-4.7.7-1.9 1.4-2.2.3 0 .3-.2h-.6l-.8.6c-.2.1-.2.4-.4.5 0-.9-.7-2.8-1.1-3.4 0 .5.2.8.3 1.2.4 1.2.5 2.5.5 3.9 0 2.1-.3 4.3-1 6.2s-.1.4-.2.5c0-.4.2-.9.2-1.3.8-4.6-.8-7.1-.9-9.9s.5-2.1 1.3-2.2c1.8-.3 3 2.3 5.3 1.1l1.5-.8c.4-.2.9-.3 1.3-.3.9.1 1.3 1.2 1.3 2.4 0 2.2-.9 4.3-1 6.5l-.5-.3z" fill="#f6a09b"/><path d="m19.2 28.9c0 2.1.2 3.4.7 5.4s.8 3.3 1.2 5c1.1 6.1.6 11.2.2 17.2v2s0 .5 0 .8 0 .7.2 1.1 0 0 0 0h.3c.2.2.5.4.9.4l5.4-.4s.2.3 0 .4 0 0-.3 0l-3.2.2-9.5.7-.2-.2c-.1-.1 0-.3 0-.3l4-.3c.5 0 .9-.2 1.2-.7s.4-.9.4-1.4v-.8c.3-3 .5-5.9.5-9 0-6.6-.9-11.7-3.4-17.1s-1-1.7-1.6-2.3c-1.8-1.7-3.4.8-4.4 2.8s-2 5-2.5 7.9c-1 5.5-.6 10.7-.3 16.2-.1 0-.2 0-.3 0-.3-2.8-.5-5.6-.6-8.5-.2-6.1.6-9.9 2.1-15.3.1 0 .2-.3.2-.5.7-1.9.9-4 1-6.2s0-2.7-.5-3.9-.3-.7-.3-1.2c.4.6 1.1 2.4 1.1 3.4.2-.1.2-.4.4-.5l.8-.6c.2-.1.4 0 .6 0 0 .2-.2.2-.3.2-.7.3-1.3 1.1-1.4 2.2s-.1 3.2-.4 4.7 1.2-1.9 2.8-2.3 2 .2 2.9 1.4.6 1 1.1 1.4c-.2-1.7-.4-3.2-.4-4.7s0-1-.3-1.5-.6-.9-.9-1.1-.4-.1-.6-.4c.7 0 1.3.3 1.7 1.1.2-1.3.6-2.3 1.1-3.3q0-.2 0 0c-.4 1.2-.7 2.4-.8 3.8 0 2.4.3 4.8.8 7 0-.2.2-.2 0-.4-.2-1.2-.3-2.3-.3-3.4l.7.6z" fill="#e98885"/><path d="m21.5 61.3c-.4 0-.8 0-1.2 0 .2-.4.5-.8.8-.5s.3.3.4.5z" fill="#fbe0b8"/><path d="m20.4 58.4c-.3 0-.5-.4-.7-.7-1.3-2.7 0-10.4-2.2-17.2s-.7-1.7-1.1-2.3c-.9-1.1-2-.9-2.8.2-1.6 2.3-2.3 7.7-2.5 11l-.2 5.2c0 1.2-.3 3.7-1.2 3.9v-5.6c0-4.8.3-10.5 1.9-14.6s1.4-3.8 2.2-4.6c1.7-1.7 3.4.9 4.4 3.1s1.2 4.4 1.6 6.8.6 4.8.6 7.3v7.4z" fill="#f0f0f0"/><path d="m21.6 58.5v-.3c1-4.4 1.5-9 1.4-13.7s-.4-5.7-.8-8.6-.7-6 0-9.2l.6-2.9c.3-1.6.6-3.2.5-4.9s-.5-2.8-1.4-3.4c-1.5-1-3.2.1-4.6 1s-2.8.9-4.2.1l-1.5-.9c-.8-.5-1.7-.7-2.5-.6-1.3.2-2.3 1.6-2.3 3.5-.2 4.9 2.1 8.6 1.4 14.6l-.4 3.2c-.3 2.9-.7 5.6-.7 8.6 0 4.6.5 8.9 1.4 13.2-.5.2-1.2-1.3-1.5-2-.7-2-1.1-4.1-1.4-6.3-.5-3.8-.7-7.6-.4-11.5l.3-4.2c.1-1.9 0-3.7-.5-5.5l-.9-3.5c-1-3.8-2-7.7-1.8-12s.5-4.3 1.3-6.2 3-4.2 5.1-4.5 2.5.1 3.7.6 2.6.7 4 .6c-.9.9-1.9 1.3-3 1.3s-2.3-.5-2.9-.2c.7 0 1.4.4 2 .7 1.9.9 3.3 1.2 5.2 0-.9 0-1.8.2-2.7-.2.6-.4 1.2-.8 1.7-1.4s.7-.6 1.2-.8c2.4-1 5.1-.9 7.1 1.5s1.7 2.8 2.2 4.7c1.4 5.7 0 11.3-1.3 16.6-.7 2.6-1.4 5.1-1.2 8l.3 4.4c.3 5.1 0 10.2-1 15.1-.3 1.3-.6 2.4-1.1 3.5s-.7 1.2-1.2 1.4v.2z" fill="#f0f0f0"/><path d="m18 8c-1.7.8-4.5 1.2-6.1-.6 1.5.4 2.9.4 4.4 0l2.2-.8c.8-.3 1.6-.4 2.3 0l-2.9 1.4z" fill="#fefefe"/><path d="m3.5 14.2q0 .2-.1.2t-.1-.2c-.1-1.4 0-2.8.2-4.2s1.2-3.2 2.3-4.1.5-.3.8-.2c-.1.4-.3.5-.5.8-1.3 2.2-2.2 4.7-2.6 7.6z" fill="#fefdfd"/></svg>