<?xml version="1.0" encoding="UTF-8"?>
<svg id="dcq_x5F_logo" xmlns="http://www.w3.org/2000/svg" xmlns:xlink="http://www.w3.org/1999/xlink" version="1.1" viewBox="0 0 56.7 56.7">  
<!-- Created by Zoltan Dul in 2026 - free to use with MIT license. Part of DentalQuoteCreator - https://github.com/ZoliQua/DentalQuoteCreator - SVG Version: 2.1.1 -->
  <defs>
    <linearGradient id="linear-gradient-logo" x1="28" y1="40.3" x2="24" y2="19.5" gradientTransform="translate(0 56.7) scale(1 -1)" gradientUnits="userSpaceOnUse">
      <stop offset="0" stop-color="#78cee2"/>
      <stop offset="1" stop-color="#307fb8"/>
    </linearGradient>
  </defs>
  <g id="inside">
    <g id="gear">
      <path d="M27.3,42.6c-.4.3-.9.3-1.4.7l-1.9-.3-2.9,2.4c-.8.2-2,.2-2.7,0-.2-.6,0-1.8-.5-2l-1.4-.3c-2.2-.5,0-.9-2.9.4-.6-.5-1.5-1.5-2-2,.2-.6.6-1,.7-1.7,0-.4-1-2-1.2-2.6-.6-.2-1,0-1.5-.4v-3c.6-.3,1.8,0,1.8-.7.2-.8.4-1.4.9-2.2l-.6-1.7c.5-.5,1.3-1.7,1.9-2,1.9.8,1.3.5,2.8.6,0,.1.3,2.4.3,2.8-.5.5-1.1.7-1.5,1.3-.8,1.3-1.2,2.2-1,3.7.2,1.8,1.1,3.2,2.4,4.1,1.7,1.2,3,1.4,4.8.8,2.2-.7,3.1-2.4,3.9-4.7,0,0,.5-1.3.8-1.8.2-.5.3-1.2,1-1.4,1-.2,2.2,3.4,2.3,4.3-.3,0-1.1.5-1.5,2s.3,2.5,0,2.9l-.5.8h0Z" style="fill: #2c71a7;"/>
      <path d="M25.8,35.9c0,2.3-1.9,4.2-4,5s-3.7.5-5.4-.7c-1.3-.9-2.4-2.6-2.5-4.4s.4-3,1.2-4.3,1.3-.9,1.8-1.4c0,.3.3,1,0,1.3-1.7,1.4-2.4,3.6-1.5,5.8s2.7,3.2,4.9,3.1,3.8-1.6,4.5-3.6c.2-.3.2-.6.5-.9h.5Z" style="fill: #0f385b;"/>
      <path d="M16.4,28.1c-1.8.8-.9.5-2.8-.3-.6.4-1,.9-1.5,1.4l.9,1.8c-.4.8-.8,1.6-1,2.3,0,.6-1.3.6-2,.9-.2.7-.2,1.3,0,2.1.6.4,1.2.3,1.8.6.2.6.4,1.2.7,1.7s.4.7.4,1.1c0,.6-.6,1-.8,1.7.4.5.9,1,1.5,1.5,2.7-1.3,1.1-.8,3.3-.2l1.3.6c.5.2.3,1.1.5,1.7.7.2,1.5.2,2.3,0l.5-1.7,3-1.2,1.7.9c.4-.4.8-.8,1.2-1.1.9-.8-.7-1.4-.5-2.5.6-.7.8-1.6,1.1-2.5.6-.2,1.1-.4,1.7-.5,0,.3.3.7.1,1s-.6.2-1,.4c-.9,2.8-1.1,1.1.2,3.7-.7,1.1-1.7,2-2.7,2.7-.7-.3-1.1-.8-1.7-1-.6.2-1.5.5-1.9.9-.5.5-.3,1.3-.6,1.9-1.3.3-2.6.3-3.9,0-.3-.6-.1-1.3-.5-1.8-.5-.5-1.4-.6-2-1l-1.8,1c-1-.8-2-1.7-2.7-2.8.2-.6.8-1.1.9-1.7-.1-.6-.5-1.4-.8-1.9-.5-.4-1.3-.3-1.9-.6-.2-1.3-.2-2.6,0-3.8.6-.3,1.4,0,1.9-.6s.6-1.2.8-1.7c0-.7-.8-1.2-.9-1.9.8-1.1,1.6-1.8,2.6-2.6l1.7.9c.3.1.5-.3.8-.2.3,0,.4.6.5.9h-.4Z" style="fill: #103b60;"/>
    </g>
    <g id="tooth-shape">
      <path d="M21.3,12.9c1.7-.1,3.3.6,4.8,1.5s4.4,3.1,6.2,1.1c-1.5-.2-2.8,0-3.9-1,2.4-.7,2.8-1.6,5.2-1.6s1.3.1,1.4.2c.5.2,2,.7,2,.8,0,.2.7.4,1.2,1.5h-3.6c-1,0-2.2.6-2.2,1.8v18.6c0,.8.2,1.4.8,1.9.4,0,3.2.4,3,.4s0,.4-.3,1.4-1.3,3-1.3,2.9c0-.2-1,1.5-1.7,1-.6-.5-.9-1.6-1.1-2.7s-.2-3.4-.3-4.1c-.4-1.8-.8-4.5-2.8-5.7s-4.4,3.2-4.5,4.8-3.1,3.7-4.6,3.7c-1.1-2.4-1.2-6-1.1-8.7.2-4.3-3.3-6.3-3-12.3s.4-.8.5-1.3c.6-2.4,2.7-4.2,5.2-4.3h0ZM21,15.3c.3,0,.4-.4.4-.6s-.2-.5-.5-.4c-3.7.7-4.3,5.4-2.9,4.5s.4-2.9,3-3.5ZM23.1,15.1c.3,0,.4-.4.3-.5s-.2-.3-.4-.3c-.4,0-.6,0-.6.3s0,.4.1.5.4,0,.7,0h-.1ZM17.4,19.7c-.2.2-.1.5,0,.6s.4,0,.5,0c.2-.2.2-.4,0-.5s-.4-.3-.6,0h.1Z" style="fill: url(#linear-gradient-logo);"/>
      <path d="M32,39.9c.2,1.2.4,3.5,1.5,3.2s2.5-3.9,2.5-5h1.2c-.4,1.7-1.2,4.3-2.6,5.6s-2.2.6-2.8-.4-.7-1.6-.8-2.6c-.3-1.9-.9-8.7-3.2-9s-2.6,2.4-2.7,3.4c-.3.4-.5.5-.9.6.1-1.7,1.9-6.4,4.6-4.8,2.7,1.6,2.4,3.8,2.8,5.7,0,0,.2,2.1.4,3.3Z" style="fill: #103a5f;"/>
      <path d="M38.1,15.4c-.3-1.4-2.7-2.4-4.2-2.4-2.6,0-3.1.8-5.5,1.5,1.1.9,2.4.8,3.9,1-1.8,2-4.9-.3-6.2-1.1s-3.1-1.6-4.8-1.5v-1c1.5,0,2.9.2,4.3,1s2.7.8,4.1,0c3.5-1.8,7.8-1.2,9.9,2.5h-1.5Z" style="fill: #32768c;"/>
      <path d="M15.8,18.5c-.4,5.9,3.1,7.9,3,12.3-.1,4.4.1,6.2,1.2,8.6-.3,0-1.1.2-1.2-.3-1-2.8-1-5.6-1-8.5s-.3-2.1-.7-3.1l-1.2-2.8c-.8-1.9-1.1-3.9-1-5.9.4,0,.9-.3.9-.3Z" style="fill: #103f63;"/>
      <path d="M33.1,37.8s.8.5,2.9.4c0,1.1-1.3,4.7-2.5,5s-1.4-2.4-1.5-3.2c-.2-1.2-.3-2.2-.5-3.3,1-.4.6,1.2,1.6,1.1Z" style="display: none; fill: #2c73ac;"/>
      <path d="M21.3,11.9v1c-2.5.2-4.5,2-5.2,4.4s-.3,1.3-.3,1.3c0,0-.6.3-.9.3.2-3.8,2.6-6.9,6.4-6.9h0Z" style="fill: #205875;"/>
    </g>
    <g id="tablet">
      <g id="tablet-inside">
        <path d="M44.6,23.3c0,2-1.3,2.7-3.4,2.8s-3-1.1-3.5-2.4,0-3.2,1.2-4.2,2.9-1,4.2-.2c0,.3-.2.5-.4.6s-.3,0-.5-.1c-1.7-.6-3.5.4-3.9,2.2s.9,3.3,2.7,3.4,3-1.1,3.1-3,0-.8.6-1.1c0,0,0,1.6,0,2Z" style="fill: #3d93a5;"/>
        <path d="M39.8,21.4l1.2,1.1,3.4-3.5c.2.2.6.5.9.7l-4.1,4.5c-.7-.6-1.4-1.4-2.1-2.1,0,0,.5-.5.7-.7Z" style="fill: #43a2a9;"/>
        <path d="M41.4,26.6v.8c.2.3,1,0,1.3.2s.2.4.2.6c.6.3,2.4,0,2.9.1s-.3,1.5.7,1.6c-.2.5-.4,1.1-.7,1.1s-.8-1.1-.8-1.1c.4,0,.8-1,.3-1.1-.8-.2-1.7,0-2.4,0,0,.1,0,.4-.2.6-.3.3-1.2,0-1.2.5s0,.7.4,1.3,1.7.7,2.3.6.3-.6.3-.6h2.8v1.9h-2.8v-.6c-.3-.3-1.4-.2-1.7,0l-1.5,1.1-1.8-1.4c1.4-1.4,1.5-.6,1.6-2s-1.2-.3-1.4-.7,0-.7-.3-.7h-2.3v2.5h-.6v-2.6c0-.3.4-.5.7-.5h2.4c0-.3,0-.6.3-.7s1,0,1.1-.2,0-.7.2-.8.2.1.2.1Z" style="fill: #3b95ab;"/>
        <path d="M38.1,31.7v1.2c0,.2,0,.4-.3.4h-2.1c-.2,0-.3-.2-.3-.4v-1.2c0-.2.2-.3.3-.3h2.1c.2,0,.3.1.3.3Z" style="fill: #3476aa;"/>
      </g>
      <g id="tablet-outside">
        <path d="M49.4,29v-11.4c0-.9-.6-1.4-1.5-1.4h-13.9c-.7,0-1,.9-1,1.4v18.5c0,.9.6,1.3,1.5,1.3h13.6c.6,0,1.3-.3,1.3-1,0,0,0-6.9,0-7.4ZM41.5,36.7c-.4,0-.7,0-.8-.3s0-.8.4-.9c.4,0,.7,0,.8.3.2.4,0,.8-.3.9h-.1ZM48.2,34.8h-13.9c-.2,0,0-.5,0-.6v-16.9h13.9v17.4h0Z" style="fill: #123e5f;"/>
        <path d="M41.5,36.7c-.4,0-.7,0-.8-.3s0-.8.4-.9c.4,0,.7,0,.8.3.2.4,0,.8-.3.9h-.1Z" style="display: none; fill: #dbecf3;"/>
      </g>
    </g>
  </g>
  <g id="outside">
    <g id="inner-line">
      <path d="M45.4,8.5c-5.9-5.4-14.7-7-22.5-5.3-5.5,1.2-10.6,4.3-14.1,8.7C1.9,20.3,1.3,30.7,6.2,40.7c4.9,10,1.4,2.3,1.7,2.8,0,0,2.6,4.7,6.6,6.4l4,2c5.2,2.2,9.6,2.2,11.8,2.1.3,0,5.7-1.1,5.7-1.1,5.5-1.5,12.1-8.2,12.2-8.2,6.1-8,7.6-20,2.8-28.9,0,0-3.5-5.2-5.7-7.2ZM46,44.9c-3.1,3.3-6.9,5.8-11.1,7,0,0-1.8.4-2.7.5-3.4.5-6.6.4-9.7-.3-.5,0-4.3-1.6-5-2-5.1-2.2-8.1-6.8-8.3-7.3h0C1.9,32.7,3.1,19.6,11.3,10.7h0c4.3-4,9.5-6.7,15.3-7.1,5.9-.4,10.4.5,15.2,4.1.5.3,3.1,2.4,3.5,2.9,8.5,8.8,9.5,22.6,2.3,32.4,0,0-1.2,1.5-1.6,1.9Z" style="fill: #103b60;"/>
    </g>
    <g id="outer-line">
      <path d="M49.8,12.8C43.6,3.8,32.5-.5,21.7,2.3c-7.4,1.9-13.6,7.2-16.9,14.1C.2,26,1.6,37.5,8.5,45.6c0,0,.2.2.3.4,6.5,7.4,16.5,10.6,26.2,8,5.4-1.4,10.1-4.6,13.6-9l.4-.5c7-9.3,7.3-22.1.8-31.7ZM47.8,44.5c-3.6,4.3-8.2,7.3-13.7,8.6-7.7,1.8-16,0-22-5.5-1.1-1-3-3.1-3.1-3.4-.6-.6-1.2-1.4-1.6-2.1-6-9.3-5.2-21.6,1.7-30.1,3.5-4.4,8.4-7.5,13.9-8.8,7.7-1.7,16,.2,22,5.6,2.2,2,4.1,4.2,5.6,6.9,4.8,8.9,4,19.8-2,28,0,0-.5.5-.8.8Z" style="fill: #4da2ba;"/>
    </g>
  </g>
</svg>